<?xml version="1.0" encoding="UTF-8"?>
<!-- Created with Inkscape (http://www.inkscape.org/) -->
<svg id="svg2" width="390" height="507.6" version="1.1" xml:space="preserve" xmlns="http://www.w3.org/2000/svg" xmlns:cc="http://creativecommons.org/ns#" xmlns:dc="http://purl.org/dc/elements/1.1/" xmlns:rdf="http://www.w3.org/1999/02/22-rdf-syntax-ns#"><metadata id="metadata8"><rdf:RDF><cc:Work rdf:about=""><dc:format>image/svg+xml</dc:format><dc:type rdf:resource="http://purl.org/dc/dcmitype/StillImage"/><dc:title/></cc:Work></rdf:RDF></metadata><defs id="defs6"><clipPath id="clipPath28"><path id="path30" d="m1249 2361h17.4v-17.67h-17.4v17.67z"/></clipPath><clipPath id="clipPath44"><path id="path46" d="m1285 2422h33.48v-65.05h-33.48v65.05z"/></clipPath><clipPath id="clipPath60"><path id="path62" d="m1181 2352h95.44v-89.78h-95.44v89.78z"/></clipPath><clipPath id="clipPath76"><path id="path78" d="m1977 2283h16.37v-22.87h-16.37v22.87z"/></clipPath><clipPath id="clipPath92"><path id="path94" d="m2051 2074h49.2v-58.99h-49.2v58.99z"/></clipPath><clipPath id="clipPath108"><path id="path110" d="m2104 2781h4.99v-10.21h-4.99v10.21z"/></clipPath><clipPath id="clipPath124"><path id="path126" d="m2069 2839h7.24v-8.4h-7.24v8.4z"/></clipPath><clipPath id="clipPath140"><path id="path142" d="m1975 2871h38.19v-44.99h-38.19v44.99z"/></clipPath><clipPath id="clipPath156"><path id="path158" d="m1982 2519h51.02v-47.81h-51.02v47.81z"/></clipPath><clipPath id="clipPath172"><path id="path174" d="m2098 2568h21.51v-28.85h-21.51v28.85z"/></clipPath><clipPath id="clipPath188"><path id="path190" d="m2283 2673h17.48v-29.64h-17.48v29.64z"/></clipPath><clipPath id="clipPath204"><path id="path206" d="m1223 2607h13.43v-6.57h-13.43v6.57z"/></clipPath><clipPath id="clipPath220"><path id="path222" d="m1104 2609h16.94v-14.12h-16.94v14.12z"/></clipPath><clipPath id="clipPath236"><path id="path238" d="m1221 2491h56.27v-49.64h-56.27v49.64z"/></clipPath><clipPath id="clipPath252"><path id="path254" d="m1045 2601h160v-148.8h-160v148.8z"/></clipPath><clipPath id="clipPath288"><path id="path290" d="m1687 2585h38.13v-645.2h-38.13v645.2z"/></clipPath><clipPath id="clipPath304"><path id="path306" d="m1609 3401h125.2v-798.7h-125.2v798.7z"/></clipPath><clipPath id="clipPath320"><path id="path322" d="m1504 1963h200.1v-415.6h-200.1v415.6z"/></clipPath><clipPath id="clipPath544"><path id="path546" d="m1638 2226h8.64v-11.34h-8.64v11.34z"/></clipPath><clipPath id="clipPath560"><path id="path562" d="m1466 2458h28.38v-41.5h-28.38v41.5z"/></clipPath><clipPath id="clipPath576"><path id="path578" d="m1652 2293h0.17v-0.92h-0.17v0.92z"/></clipPath><clipPath id="clipPath592"><path id="path594" d="m1576 2155h1.96v-1.39h-1.96v1.39z"/></clipPath><clipPath id="clipPath608"><path id="path610" d="m1392 2359h13.59v-8.49h-13.59v8.49z"/></clipPath><clipPath id="clipPath624"><path id="path626" d="m1404 2431h49.02v-72.62h-49.02v72.62z"/></clipPath><clipPath id="clipPath640"><path id="path642" d="m1650 2251h6.39v-6.18h-6.39v6.18z"/></clipPath><clipPath id="clipPath656"><path id="path658" d="m1583 2199h10.43v-15.07h-10.43v15.07z"/></clipPath><clipPath id="clipPath672"><path id="path674" d="m1269 2282h103.8v-110.9h-103.8v110.9z"/></clipPath><clipPath id="clipPath688"><path id="path690" d="m1564 2364h7.87v-9.69h-7.87v9.69z"/></clipPath><clipPath id="clipPath704"><path id="path706" d="m1597 2180h30.49v-15.46h-30.49v15.46z"/></clipPath><clipPath id="clipPath720"><path id="path722" d="m1874 2177h31.3v-39.05h-31.3v39.05z"/></clipPath><clipPath id="clipPath736"><path id="path738" d="m1892 2309h26.44v-32.91h-26.44v32.91z"/></clipPath><clipPath id="clipPath752"><path id="path754" d="m1949 2076h76.86v-46.87h-76.86v46.87z"/></clipPath><clipPath id="clipPath768"><path id="path770" d="m1846 2118h85.45v-94.96h-85.45v94.96z"/></clipPath><clipPath id="clipPath784"><path id="path786" d="m1591 2680h8.53v-3.87h-8.53v3.87z"/></clipPath><clipPath id="clipPath800"><path id="path802" d="m1563 2711h13.05v-11.08h-13.05v11.08z"/></clipPath><clipPath id="clipPath816"><path id="path818" d="m1473 3045h79.87v-68.47h-79.87v68.47z"/></clipPath><clipPath id="clipPath832"><path id="path834" d="m1518 2612h13.56v-17.66h-13.56v17.66z"/></clipPath><clipPath id="clipPath848"><path id="path850" d="m1600 2645h6.45v-2.05h-6.45v2.05z"/></clipPath><clipPath id="clipPath864"><path id="path866" d="m1396 2728h27.27v-31.28h-27.27v31.28z"/></clipPath><clipPath id="clipPath880"><path id="path882" d="m1639 2825h56.92v-89.26h-56.92v89.26z"/></clipPath><clipPath id="clipPath896"><path id="path898" d="m1492 2733h17.79v-16.68h-17.79v16.68z"/></clipPath><clipPath id="clipPath912"><path id="path914" d="m1453 2730h20.32v-20.67h-20.32v20.67z"/></clipPath><clipPath id="clipPath928"><path id="path930" d="m1533 2719h7.32v-2.03h-7.32v2.03z"/></clipPath><clipPath id="clipPath944"><path id="path946" d="m1442 2150h15.8v-7.6h-15.8v7.6z"/></clipPath><clipPath id="clipPath960"><path id="path962" d="m1471 2199h3.14v-3.67h-3.14v3.67z"/></clipPath><clipPath id="clipPath976"><path id="path978" d="m1889 2762h45.97v-61.11h-45.97v61.11z"/></clipPath><clipPath id="clipPath992"><path id="path994" d="m1869 2691h2.34v-6.12h-2.34v6.12z"/></clipPath><clipPath id="clipPath1008"><path id="path1010" d="m1939 2576h12.25v-17.68h-12.25v17.68z"/></clipPath><clipPath id="clipPath1024"><path id="path1026" d="m1954 2826h55.28v-58.89h-55.28v58.89z"/></clipPath><clipPath id="clipPath1040"><path id="path1042" d="m1660 2504h28.67v-35h-28.67v35z"/></clipPath><clipPath id="clipPath1056"><path id="path1058" d="m1549 2421h16.61v-23.3h-16.61v23.3z"/></clipPath><clipPath id="clipPath1072"><path id="path1074" d="m1785 2252h32.24v-26.13h-32.24v26.13z"/></clipPath><clipPath id="clipPath1088"><path id="path1090" d="m1646 2472h8.71v-21.57h-8.71v21.57z"/></clipPath><clipPath id="clipPath1104"><path id="path1106" d="m1579 2475h36.64v-53.29h-36.64v53.29z"/></clipPath><clipPath id="clipPath1120"><path id="path1122" d="m1794 2339h18.47v-9.45h-18.47v9.45z"/></clipPath><clipPath id="clipPath1136"><path id="path1138" d="m1592 2287h4.86v-1.04h-4.86v1.04z"/></clipPath><clipPath id="clipPath1152"><path id="path1154" d="m1483 2398h102.5v-119.8h-102.5v119.8z"/></clipPath><clipPath id="clipPath1168"><path id="path1170" d="m1605 2312h61.68v-58.1h-61.68v58.1z"/></clipPath><clipPath id="clipPath1184"><path id="path1186" d="m1688 2291h45.97v-26.66h-45.97v26.66z"/></clipPath><clipPath id="clipPath1200"><path id="path1202" d="m1680 2269h5.69v-3.25h-5.69v3.25z"/></clipPath><clipPath id="clipPath1216"><path id="path1218" d="m1382 2476h8.58v-12.39h-8.58v12.39z"/></clipPath><clipPath id="clipPath1232"><path id="path1234" d="m1366 2611h4.87v-6.87h-4.87v6.87z"/></clipPath><clipPath id="clipPath1248"><path id="path1250" d="m1393 2460h18.84v-12.25h-18.84v12.25z"/></clipPath><clipPath id="clipPath1264"><path id="path1266" d="m1322 2436h38.61v-32.31h-38.61v32.31z"/></clipPath><clipPath id="clipPath1284"><path id="path1286" d="m1551 2612h36.99v-13.32h-36.99v13.32z"/></clipPath><clipPath id="clipPath1304"><path id="path1306" d="m1454 2670h92.7v-72.02h-92.7v72.02z"/></clipPath><clipPath id="clipPath1320"><path id="path1322" d="m1387 2127h55.24v-83.04h-55.24v83.04z"/></clipPath><clipPath id="clipPath1344"><path id="path1346" d="m1518 2151h47.7v-38.81h-47.7v38.81z"/></clipPath><clipPath id="clipPath1360"><path id="path1362" d="m1290 2065h83.17v-57.53h-83.17v57.53z"/></clipPath><clipPath id="clipPath1376"><path id="path1378" d="m1355 2031h224.1v-66.23h-224.1v66.23z"/></clipPath><clipPath id="clipPath1392"><path id="path1394" d="m1620 2002h15.69v-7.08h-15.69v7.08z"/></clipPath><clipPath id="clipPath1408"><path id="path1410" d="m1319 2304h63.43v-40.11h-63.43v40.11z"/></clipPath></defs><g id="g10" transform="matrix(1.25 0 0 -1.25 -1248.1 2442.4)"><g id="g20" transform="matrix(.21197 0 0 .21197 1073.3 1694)"><path id="path22" d="m0 0s7.002 22.93-4.607 31.32c-11.61 8.393-27.38-3.91-27.38-3.91s-4.927 25.73-30.1 24.61c-25.17-1.123-7.251-40.27-7.251-40.27s-16.38 20.17-28.55 5.032c-10.34-12.86 1.677-26.29-6.713-21.25 0.278 16.5-8.113 34.26-28.25 28.66 0 0-36.08-10.9-3.672-43.77-4.438-1.676-7.796 7.831-15.06 0-7.273-7.835-4.476-12.31-4.476-12.31s-8.951 11.75-20.7 6.154c-11.74-5.594 1.118-29.64-10.63-27.96-11.75 1.675 0.617 33-37.17 34.12-37.79 1.119-42.32-59.29-28.58-60.97 7.018-0.555 0-2.235 0-2.235s-10.32-19.02 7.577-25.18c17.9-6.152 49.06 4.481 49.7 0 0.64-4.475-8.868-6.708-4.396-23.49 4.477-16.79 24.06-8.95 24.06-8.95s-2.622-7.274 9.036-12.31c0 0 13.34-6.713 20.05 0 6.711 6.711 0.559 12.87 3.914 11.19 3.357-1.678 5.031-8.952 9.507-6.154 4.477 2.802 3.922 19.58 14.55 14.55 10.62-5.037-14.55-16.6-5.04-22.56 9.512-5.967 20.14-5.412 20.14-5.412s-10.63-13.98 1.118-15.66c11.74-1.674 36.96-1.115 33.58 13.43-3.373 14.55 6.134 4.479 6.134 4.479s-1.116-10.63 7.271-7.831c8.393 2.793 8.952 15.1 8.952 15.1s4.249-15.1 14.99-16.22c10.74-1.119 34.79 5.595 24.72 23.49s-11.88 28.53-7.616 31.88c4.257 3.357 9.558-1.116 16.98-1.677 7.422-0.556 8.487 8.951 8.487 8.951s-0.384-17.9 9.903-15.66c10.28 2.237 10.54 12.86 10.54 12.86s41.69-7.271 35.54 21.26c-6.149 28.53-32.44 14.54-32.44 14.54l-0.556 5.596s23.77 3.355 18.31 11.74c-5.448 8.393-18.31 7.272-18.31 7.272s25.94-3.178 27.41 16.78c1.678 22.94-15.7 29.08-29.95 22.38-14.24-6.713-20.45-6.713-20.45-6.713s10.58 7.271 0 11.19l-10.48 3.95z" fill="#457840"/></g><g id="g24" transform="matrix(.21197 0 0 .21197 786.85 1219.7)"><g id="g32"><g id="g34" clip-path="url(#clipPath28)" opacity=".14999"><g id="g36" transform="translate(1263.9 2343.6)"><path id="path38" d="m0 0s-6.182 7.729-14.6 13.02c1.424 1.995 3.125 3.529 5.165 4.217 3.93 1.32 8.125-0.56 12.23-3.27-2.19-6.921-2.798-13.97-2.798-13.97" fill="#22191e"/></g></g></g></g><g id="g40" transform="matrix(.21197 0 0 .21197 786.85 1219.7)"><g id="g48"><g id="g50" clip-path="url(#clipPath44)" opacity=".14999"><g id="g52" transform="translate(1318.1 2364.6)"><path id="path54" d="m0 0c-4.5-12.77-5.295-6.437-12.91-7.229-4.277-0.448-9.829 4.792-15.64 8.876-5.87 14.24-8.216 36.82 2.908 49.7 5.505 6.383 12 6.664 17.71 4.006-9.48-18.51-0.778-47.96 7.93-55.36" fill="#22191e"/></g></g></g></g><g id="g56" transform="matrix(.21197 0 0 .21197 786.85 1219.7)"><g id="g64"><g id="g66" clip-path="url(#clipPath60)" opacity=".14999"><g id="g68" transform="translate(1206.2 2350.3)"><path id="path70" d="m0 0c3.038 1.444 6.154 1.835 9.228 1.521-11.51-9.978-18.77-24.54-7.14-35.2 15.44-14.17 34.4-4.239 32.33-8.882-2.078-4.643-23.06-10.99-7.382-19.21 15.69-8.225 33.77 10.57 35.62 6.591 1.849-3.981-14.02-15.12-1.343-21.96 2.765-1.491 5.81-1.714 8.898-1.203-6.021-1.997-20.07-13.89-30.32-8.364-12.67 6.836 3.191 17.97 1.342 21.95-1.851 3.981-19.93-14.81-35.62-6.589-15.68 8.22 5.304 14.57 7.381 19.21 2.074 4.643-16.89-5.287-32.33 8.88-15.45 14.17 2.43 35.21 19.33 43.25" fill="#22191e"/></g></g></g></g><g id="g72" transform="matrix(.21197 0 0 .21197 786.85 1219.7)"><g id="g80"><g id="g82" clip-path="url(#clipPath76)" opacity=".14999"><g id="g84" transform="translate(1993 2267.5)"><path id="path86" d="m0 0c-0.428-16.55-13.74-0.43-15.06 1.885-0.378 1.72-0.814 3.326-1.3 4.824 0.728 0.658 1.483 1.323 2.283 1.993 3.323 2.792 6.594 5.019 9.791 6.779 2.242-5.565 4.418-10.66 4.289-15.48" fill="#22191e"/></g></g></g></g><g id="g88" transform="matrix(.21197 0 0 .21197 786.85 1219.7)"><g id="g96"><g id="g98" clip-path="url(#clipPath92)" opacity=".14999"><g id="g100" transform="translate(2060.1 2074.5)"><path id="path102" d="m0 0c2.658-4.939 7.395-11.44 14.09-13.3 12.14-3.398 14.13 13.48 14.98 5.883-2.67-14.93 1.942-25.98 10.17-32.89 1.342-7.255 0.336-15.91-11.07-18.01-19.97-3.673-40.65 7.811-37.32 32.4 12.36 7.88 11.28 19.1 9.15 25.92" fill="#22191e"/></g></g></g></g><g id="g104" transform="matrix(.21197 0 0 .21197 786.85 1219.7)"><g id="g112"><g id="g114" clip-path="url(#clipPath108)" opacity=".14999"><g id="g116" transform="translate(2104 2770.3)"><path id="path118" d="m0 0c0.219 2.829 1.393 6.228 3.645 9.863 0.455 0.118 0.896 0.227 1.345 0.347-0.165-4.283-1.937-7.562-4.99-10.21" fill="#22191e"/></g></g></g></g><g id="g120" transform="matrix(.21197 0 0 .21197 786.85 1219.7)"><g id="g128"><g id="g130" clip-path="url(#clipPath124)" opacity=".14999"><g id="g132" transform="translate(2068.8 2837.4)"><path id="path134" d="m0 0c2.432 1.177 4.867 1.921 7.234 2.035-3.361-3.969-5.796-7.279-6.716-8.401 0 0-0.096 2.455-0.518 6.366" fill="#22191e"/></g></g></g></g><g id="g136" transform="matrix(.21197 0 0 .21197 786.85 1219.7)"><g id="g144"><g id="g146" clip-path="url(#clipPath140)" opacity=".14999"><g id="g148" transform="translate(2013.5 2836.4)"><path id="path150" d="m0 0c-3.096 4.402-10.77 12.31-23.51 6.966-5.4-2.267-8.09-8.931-8.71-16.94-7.43 16.45-14.36 43.91 21.43 45-1.09-13.04 7.208-28.87 10.79-35.02" fill="#22191e"/></g></g></g></g><g id="g152" transform="matrix(.21197 0 0 .21197 786.85 1219.7)"><g id="g160"><g id="g162" clip-path="url(#clipPath156)" opacity=".14999"><g id="g164" transform="translate(1995.4 2485.3)"><path id="path166" d="m0 0c14.22 3.104 4.769 33.78 4.769 33.78s13.31-27.52 33.36-28.3c-1.21-5.99-5.61-12.04-15.67-16.91-14.92-7.25-27.36 1.936-35.35 11.28 5.272-0.527 9.907-0.496 12.89 0.154" fill="#22191e"/></g></g></g></g><g id="g168" transform="matrix(.21197 0 0 .21197 786.85 1219.7)"><g id="g176"><g id="g178" clip-path="url(#clipPath172)" opacity=".14999"><g id="g180" transform="translate(2104.4 2543)"><path id="path182" d="m0 0c15.63 12.66-4.134 25.11-4.134 25.11s7.406-4.334 16.44-7.107c2.94-5.62 5.19-11.7-1.64-17.68-4.477-3.913-10.72-4.577-17.03-3.748 2.039 0.562 4.156 1.641 6.362 3.429" fill="#22191e"/></g></g></g></g><g id="g184" transform="matrix(.21197 0 0 .21197 786.85 1219.7)"><g id="g192"><g id="g194" clip-path="url(#clipPath188)" opacity=".14999"><g id="g196" transform="translate(2294.6 2643.3)"><path id="path198" d="m0 0c-1.823 14.88-13.11 24.18-11.48 28.61 0.884 2.4 4.761 0.284 10.04-2.69-0.039-0.06-0.085-0.1-0.115-0.16-2.168-4.67 16.44-17.73 1.576-25.75-6e-3 -4e-3 -0.013-5e-3 -0.021-9e-3" fill="#22191e"/></g></g></g></g><g id="g200" transform="matrix(.21197 0 0 .21197 786.85 1219.7)"><g id="g208"><g id="g210" clip-path="url(#clipPath204)" opacity=".14999"><g id="g212" transform="translate(1236 2600.3)"><path id="path214" d="m0 0-13.43 6.006c4.859 1.331 8.285 0.131 11.53-1.77-0.025-2.538 1.9-4.236 1.9-4.236" fill="#22191e"/></g></g></g></g><g id="g216" transform="matrix(.21197 0 0 .21197 786.85 1219.7)"><g id="g224"><g id="g226" clip-path="url(#clipPath220)" opacity=".14999"><g id="g228" transform="translate(1119.4 2594.6)"><path id="path230" d="m0 0s-6.974 8.715-15.71 12.72c0.604 0.451 1.246 0.811 1.942 1.046 4.836 1.62 10.16-2.64 15-6.281-0.934-4.12-1.225-7.489-1.225-7.489" fill="#22191e"/></g></g></g></g><g id="g232" transform="matrix(.21197 0 0 .21197 786.85 1219.7)"><g id="g240"><g id="g242" clip-path="url(#clipPath236)" opacity=".14999"><g id="g244" transform="translate(1236.7 2487.6)"><path id="path246" d="m0 0s8.226 7.266 12.54 1.356c4.321-5.912-10.36-14.27-1.064-22.41 9.299-8.132 29.52 3.718 29.52 3.718s-13.85-8.73-2.898-17.6c0.372-0.299 0.739-0.568 1.1-0.813-6.352-1.828-14.08-16.09-24.72-7.467-10.96 8.873 2.898 17.6 2.898 17.6s-20.22-11.85-29.52-3.714c-2.16 1.891-3.015 3.792-3.126 5.674 6.395 7.3 15.27 23.65 15.27 23.65" fill="#22191e"/></g></g></g></g><g id="g248" transform="matrix(.21197 0 0 .21197 786.85 1219.7)"><g id="g256"><g id="g258" clip-path="url(#clipPath252)" opacity=".14999"><g id="g260" transform="translate(1065.9 2599.7)"><path id="path262" d="m0 0c3.98 1.894 8.13 1.602 12.02 0.229-8.515-8.12-13.32-19.24-4.297-27.51 12.7-11.65 28.29-3.483 26.58-7.3-1.707-3.818-18.96-9.039-6.07-15.8 12.9-6.764 27.76 8.689 29.28 5.418 1.521-3.273-11.52-12.43-1.102-18.05 10.42-5.621 25.63 10.67 27.21 6.381 1.579-4.296-14.21-15.14-5.677-33.88 2.927-11.26 15.82-11.34 15.82-11.34s-12.32-3.081-5.164-13.78c7.159-10.69 31.94-19.79 40.54-11.69 2.907-0.887 6.462-3.778 10.08-6.488-3.277-5.145-6.937-10.31-9.657-12.54-6.282-5.148-17.04 8.614-24.04 10.75-8.594-8.098-33.38 0.997-40.54 11.69-7.159 10.7 5.164 13.78 5.164 13.78s-12.89 0.088-15.82 11.34c-8.539 18.74 7.256 29.59 5.676 33.88-1.578 4.291-16.79-12-27.21-6.381-10.42 5.62 2.625 14.78 1.105 18.05-1.523 3.271-16.39-12.18-29.29-5.419-12.89 6.76 4.363 11.98 6.07 15.8 1.706 3.817-13.88-4.348-26.58 7.301-12.68 11.62 2.02 28.92 15.92 35.53" fill="#22191e"/></g></g></g></g><g id="g264" transform="matrix(.21197 0 0 .21197 1145.1 1588.6)"><path id="path266" d="m0 0s-21.47-159.4-44.88-161.4c-39.52 0.374-28.81-13.54-28.81-13.54l-116.9-13.95v-2.818h190.6v191.6z" fill="#615552"/></g><g id="g268" transform="matrix(.21197 0 0 .21197 1155.8 1948)"><path id="path270" d="m0 0-8.844-733.1 2.393-96.15 3.89-156.4 11.42-901.5h-79.77l29.13 912.6 36.86 974.4h4.922z" fill="#615552"/></g><g id="g272" transform="matrix(.21197 0 0 .21197 1157.1 1569.4)"><path id="path274" d="m0 0c0.014-1.105 22.16-61.21 27.33-68.59 5.173-7.388 19.15-10.11 26.59-13.3 18.1-7.753 72.01-15.99 72.01-15.99v-3.317h-126.7l0.8 101.2z" fill="#615552"/></g><g id="g276" transform="matrix(.21197 0 0 .21197 1144.9 1621.6)"><path id="path278" d="m0 0s-43.75 44.84-53.59 48.12c-9.85 3.28-14.51 19.69-14.51 19.69l-93.96 16.99 10.36 6.621 89.91-8.305s12.3-13.12 14.08-17.5c1.78-4.37 57.55-24.06 57.55-24.06l-9.844-41.56z" fill="#615552"/></g><g id="g280" transform="matrix(.21197 0 0 .21197 1150 1636.2)"><path id="path282" d="m0 0s32.46 9.436 36.93 13.45c7.839 10.55 26.53 22.69 26.53 22.69l80.38-5.307v-10.98s-62.97 1.278-77.18 1.134c-5.42-12.02-66.67-76.08-66.67-76.08l0.05 55.1z" fill="#615552"/></g><g id="g284" transform="matrix(.21197 0 0 .21197 786.85 1219.7)"><g id="g292"><g id="g294" clip-path="url(#clipPath288)" opacity=".3"><g id="g296" transform="translate(1700.1 2461.7)"><path id="path298" d="m0 0 3.886 123.6c8.451-0.769 15.74-1.487 21.13-2.18l-3.95-125.6-13.21-517.4c-6.586 2.402-14.16 5.234-20.97 7.949l13.11 513.7z" fill="#22191e"/></g></g></g></g><g id="g300" transform="matrix(.21197 0 0 .21197 786.85 1219.7)"><g id="g308"><g id="g310" clip-path="url(#clipPath304)" opacity=".3"><g id="g312" transform="translate(1725.7 3276)"><path id="path314" d="M0,0,8.75-53.38,6.379-471.6,0.033-673.4c-23.23,1.542-84.85,5.773-115.9,9.286l-0.626,2.136c32.55-2.97,76.61-5.988,95.45-7.237l17.75,564.9-37.64,229.6,10.98-7.037,0.558-2.19c-0.06-3.7,18.43-113.2,27.76-168.3l1.641,52.16z" fill="#22191e"/></g></g></g></g><g id="g316" transform="matrix(.21197 0 0 .21197 786.85 1219.7)"><g id="g324"><g id="g326" clip-path="url(#clipPath320)" opacity=".3"><g id="g328" transform="translate(1649.5 1579.1)"><path id="path330" d="m0 0c9.926 0.937 19.32 30.19 26.85 63.56l6.697 262.4c-13.3 13.09-38.27 37-45.4 39.32-8.8 2.872-13.54 16.21-14.46 19.05l20.9-3.643s4.769-16.38 14.63-19.59c7.126-2.329 32.09-26.24 45.4-39.32l-6.7-262.5c-7.53-33.37-16.93-62.62-26.85-63.57-39.52 0.121-28.72-13.72-28.72-13.72l-104.2-13.12-33.62-0.217-0.018 2.818 116.8 14.7s-10.8 13.84 28.72 13.72" fill="#22191e"/></g></g></g></g><g id="g332" transform="matrix(.21197 0 0 .21197 1093 1662)"><path id="path334" d="m0 0s-50.93 52.85-57.66 59.58c-27.86-0.97-148.9-24.61-148.9-24.61l6.721-4.808s135.1 17.89 138.1 15.96c3.085-1.919 54.98-87.44 54.98-87.44l6.82 41.32z" fill="#615552"/></g><g id="g336" transform="matrix(.21197 0 0 .21197 1053 1778.3)"><path id="path338" d="m0 0c-0.48 2.944-0.759 6.3-0.746 10.17 0.052 15.98 29.37 1.131 29.37 1.131l9.24 6.775c9.244 6.779 31.42 0 31.42 0s-13.55 5.65-3.395 19.2c4.111 5.477 8.02 6.493 11.24 5.805-8.785 6.633-21.78 17.22-22.53 22.44-1.132 7.903 22.58 9.051 22.58 9.051s-22.62 24.83 11.3 32.74c22.43 5.227 21.46-18.07 23.72-24.84 2.265-6.782 19.21-14.69 13.55 3.382-5.645 18.07 9.04 31.63 27.11 36.14 18.07 4.519 21.46-10.16 24.84-3.386 3.392 6.774-29.36 37.27 0 47.44 29.37 10.16 42.92-14.69 42.92-14.69l27.11 27.11c35.01-2.259 27.11-35.01 28.23-32.76 1.133 2.259 16.94 9.035 25.98-14.28 9.033-23.32-9.037-20.73-11.71-33.16-2.671-12.43 36.56-15.81 29.78-3.39-6.778 12.43-7.909 32.75 22.52 36.55 30.42 3.786 28.59-28.64 28.59-28.64s7.625 21.46 31.34 4.518c23.72-16.95 8.416-32.75 8.416-32.75s11.92 5.646 17.56-14.69c5.65-20.33-11.3-13.55-12.71-20.33-1.419-6.775-0.84-12.43 7.068-7.911 7.902 4.523 41.79 7.911 49.96-28.23 4.85-21.45-9.856-28.97-22.62-31.55 0 0 13.31 2.186 14.06-12.49 0.613-11.95-18.11-13.28-18.11-13.28s-3.647-12.07-15.36-17.28c-11.71-5.209-26.02 8.347-26.02 8.347l-25.82-14.11s-21.88-10.36-27.64-2.3c-3.574 5.001-3.597 8.224-3.101 9.959-2.058-3.827-7.95-13.41-15.33-13.41-9.218 0-5.761 19.58-13.82 25.33-8.073 5.765-13.83-12.67-1.154-31.1 12.66-18.43-13.82-42.62-33.4-39.16-19.58 3.454-10.37 19.58-10.37 29.95 0 10.36-25.34-2.307-30.94-6.915 13.99-31.09-20.9-36.86-45.09-36.86-24.18 0-10.37 21.88-10.37 21.88s-6.907-4.607-34.55 8.068c-27.64 12.67 13.43 43.19 13.43 43.19 7.684 24-27.64 20.54-27.64 20.54s-12.28-50.68-44.54-19.97c-12.67 12.08-13.82 26.11-6.132 39.93 7.673 13.83-10.75 16.9-27.64 9.219-3.017-1.371-5.123-3.246-6.69-5.399-0.801-5.55-2.432-11.81-5.619-16.9-1.439-5.913-3.65-11.09-10.73-13.02-14.92-4.071-13.07 20.56-12.44 26.4 0.033 0.425 0.067 0.85 0.104 1.26-0.49 0.28-24.61 6.55-25.31 26.45" fill="#457840"/></g><g id="g340" transform="matrix(.21197 0 0 .21197 1192.1 1873.8)"><path id="path342" d="m0 0c-6.562 4.921 26.25 11.48 13.12 39.37-13.12 27.89-45.93 36.09-57.41 20.51s0-43.05-21.33-26.03c-21.32 17.01 9.023 37.52-16.4 58.84-25.43 21.33-54.14-0.823-48.39-21.33 5.741-20.51 10-40.19-0.741-40.19s-0.08 36.09-27.97 34.45-22.97-31.17-4.921-38.55c18.05-7.382 24.61-31.17 11.48-38.55-13.12-7.383-5.741 10.66-21.33 9.023-15.58-1.641-22.97-6.845-19.68-10.81 3.281-3.955-4.1 12.45-4.921 23.11s-3.127 20.51-19.61 25.43c-16.48 4.921-11.56-19.69-26.32-16.41-14.76 3.282-5.742 22.7-31.17 24.88-25.43 2.186-33.63-11.76-24.61-28.16 9.021-16.4-2.462 6.562-9.842-1.64-7.383-8.203 0-27.81 0-27.81s-13.95 19.61-34.45 14.69c-20.51-4.92-25.43-12.3-22.97-27.89 2.46-15.58 0 1.639-13.12-3.283-13.12-4.92 12.3-20.5 12.3-20.5 4.101-14.76-18.04 13.12-34.45 4.92-16.4-8.202-18.04-21.32-10.66-31.99 0 0-20.5-0.821-9.842-14.76s23.79-12.3 23.79-12.3-13.12-15.58-1.641-22.97c11.48-7.381 42.65 4.949 42.65 4.949s-7.384-7.197 0-13.87c7.378-6.664 13.94 12.2 19.68 8.102 5.74-4.102-7.325-14.6 9.022-20.61 13.12-4.819 30.35 16.56 23.79 26.38 2.461-0.847 23.79-3.308 22.15 8.174 1.64-10.66 9.023-40.19 23.78-23.78 14.77 16.4 14.1 18.86 23.86 22.97-0.896-11.48 27.38-47.59 45.23-28.72s20.31 33.64 20.31 33.64-17.58-59.82 27.07-53.32c45.07 6.562 42.56 38.55 45.07 45.93 0 0 4.965-14.76 14.81-8.203 9.842 6.562 9.023 18.04 9.023 18.04s1.641-29.53 12.3-27.89c10.66 1.639 16.41 2.462 16.41 2.462s-11.48-32.16 14.76-30.84c26.25 1.311 54.14 25.98 50.86 41.53-3.282 15.56 20.5 12.28 18.86 4.895-1.641-7.383-6.401-33.63 11.56-31.17 17.96 2.461 25.33 20.51 25.33 20.51s-0.808-9.843 4.114-11.48c4.921-1.639 13.94 3.282 13.94 3.282s-6.561-13.95 8.203-17.22c14.76-3.28 46.75 40.19 28.71 46.75-18.05 6.56-33.63-13.12-36.91-3.28-3.281 9.84 17.23 14.76 5.742 27.07-11.48 12.3-18.04 15.58-13.12 17.22s25.43 12.3 11.48 20.5l-11.48 4.923s18.04 19.68 0 28.71c-18.04 9.024-32.81-14.82-29.53-19.3 3.281-4.486 7.383 16.02-7.382 18.48-14.76 2.461-21.33-9.022-21.33-9.022s16.75 21.88 0 28.71c-16.93 7-28.07-6.39-28.07-6.39" fill="#457840"/></g><g id="g344" transform="matrix(.21197 0 0 .21197 1164.8 1722)"><path id="path346" d="m0 0c15.92-5.574-10.35-24.68-19.11-26.51-8.758-1.821-11.14 17.76-11.14 17.76s-0.794-26.27-18.8-25.72c-18.01 0.572-16.24 15.37-13.85 20.94 2.388 5.567-9.556 10.34-14.33 7.159-4.777-3.187-5.576-18.31-17.52-15.13-11.94 3.184-3.974 15.13-3.974 15.13s-11.95-16.72-22.3-13.53c-10.35 3.179-1.594 15.12-7.163 18.31-5.575 3.189-9.557-5.572-9.557-5.572s-1.591-20.7-4.779-27.07c-3.186-6.364-16.72 0.799-23.08 0-3.985-9.551-27.07-11.14-36.63-5.146-9.562 6.002-0.795 12.87-0.795 12.87s-10.35-4.542-16.72 3.419c-13.54 11.94-4.781 26.28-7.575 29.15-2.8 2.873-9.144-15.62-19.49-14.84-10.35 0.768-3.185 12.76-5.572 14.84-2.394 2.078-8.756-15.62-21.5-14.81-12.74 0.793-0.791 11.14-0.791 14.81 0 3.667-9.56-8.446-23.88-3.671-14.34 4.778-8.766 23.89 0 34.15 8.753 10.27 28.66 0 28.66 0s-5.568 16.01 0 21.16c5.568 5.148 18.31-2.759 23.09 0 4.777 2.763 7.164-1.171 6.371 8.558-8.761 2.557-25.48 22.92-20.7 38.84 4.767 15.93 27.86 3.979 26.27-3.987-1.594-7.96 7.963-2.384 7.963-2.384s1.59 11.15 15.12 7.961c13.54-3.182 6.377-23.89 6.377-23.89h26.8s-7.687 2.387 0 11.94c7.693 9.554 13.81 4.78 21.77 4.78 7.959 0 7.959 6.364 0.794 11.23-13.54-2.313-22.29-2.474-22.56 11.51-0.261 13.99 12.21 11.49 12.21 11.49s-14.33-1.592-11.94 15.13 27.86 1.591 31.06 0c0 0-13.39 33.38 3.714 41.93 32.92 16.46 26-26.8 26-26.8s0.272 11.41 11.68 11.67c11.41 0.267 18.58-31.06 8.759-34.5-9.822-3.451-1.588-5.838 1.329-5.578 2.913 0.272 5.045 6.372 12.2 6.372 7.171 0 8.505-7.692 7.963-9.819 2.919 3.719 1.059 19.91 15.66 21.24 14.6 1.322 12.48-25.48 12.48-25.48s2.386 3.982 10.08 2.655c7.688-1.329 3.979-18.58 3.979-18.58s3.186 9.562 16.19 13.54c13 3.981 17.78-9.027 17.78-9.027s-3.447 14.07 8.23 13.8c11.68-0.263 26.8-30.78 10.88-37.16-6.099-1.583-9.282-6.895-6.364-7.426 2.924-0.536 16.32 1.691 16.19-6.633-0.37-16.98-17.62-5.82-18.68-10.08 0 0 27.61-17.78 16.99-28.93-10.62-11.14-31.05-22.55-39.81-4.24-1.33 1.86-6.37-0.45-3.71-3.27 2.64-2.83 24.68-5.75 18.3-17.43-6.367-11.68-11.94-10.88-11.94-10.88l9.285-4.246z" fill="#457840"/></g><g id="g348" transform="matrix(.21197 0 0 .21197 1120 1656.7)"><path id="path350" d="m0 0s16.4-20.1 17.23-20.1c0.818 0 14.52 1.172 14.52 1.172l-31.75 31.64v-12.71z" fill="#615552"/></g><g id="g352" transform="matrix(.21197 0 0 .21197 1105.5 1745.6)"><path id="path354" d="m0 0s-105.2-17.8-117.5-23.22c0-2.133 4.375-8.766 4.375-8.766l123.3 25.1-10.19 6.887z" fill="#615552"/></g><g id="g356" transform="matrix(.21197 0 0 .21197 1167.3 1903.2)"><path id="path358" d="m0 0 18.94 3.14v-2.32l-22.18-7.934 3.242 7.114z" fill="#615552"/></g><g id="g360" transform="matrix(.21197 0 0 .21197 1102.1 1771.9)"><path id="path362" d="M0,0,4.657-6.312,52.53,12.17,39.35,22.7,0,0z" fill="#615552"/></g><g id="g364" transform="matrix(.21197 0 0 .21197 1123.7 1773.6)"><path id="path366" d="m0 0-6.351 22.18h-4.404l-7.88-19.13 18.64-3.05z" fill="#615552"/></g><g id="g368" transform="matrix(.21197 0 0 .21197 1170.5 1753.4)"><path id="path370" d="m0 0s49.06-32.17 64.38-36.86c27.34-1.419 74.64 5.142 74.64 5.142v7.645s-54.2-5.466-69.51-4.364c-20.78 7.669-52.98 40.47-52.98 40.47l-16.51-12.03z" fill="#615552"/></g><g id="g372" transform="matrix(.21197 0 0 .21197 1202.4 1899.3)"><path id="path374" d="m0 0c3.279 3.281 16.41 31.72-8.748 43.75-25.15 12.03-40.47-24.06-47.03-16.41-6.561 7.658 22.97 14.22 9.843 42.65-13.12 28.43-48.12 6.562-48.12 6.562s2.186 24.32-14.22 28.02c-16.4 3.698-15.31-18.17-24.06-11.61-8.748 6.561 7.66 37.19-17.5 47.03-25.16 9.843-19.82-21.88-19.82-21.88s-11.18 22.97-29.58 16.41c-18.4-6.561 2.757-30.62-7.821-38.28-10.58-7.657-11.99 22.97-32.07 13.13-20.07-9.845-17.88-31.72-17.88-31.72s-14.47 12.03-22 7.652c-7.528-4.37-34.87-29.53-10.81-42.65s7.403-10.93 10.81-18.59c3.406-7.658-10.81-21.87 29.66-24.06 22.51-1.215 12.03 26.25 14.22 17.5 2.184-8.747 1.564-27.82 18.21-33.9 32.17-11.76 47.27 21.87 47.27 21.87s-17.45-20.78 9.386-28.44c26.84-7.652 33.4 24.06 33.4 24.06l20.78-7.656c21.87-7.651 27.34 10.94 27.34 10.94s-5.471-21.87 16.4-19.69c21.87 2.184 27.34 19.69 27.34 19.69s21.87-17.5 35-4.377" fill="#457840"/></g><g id="g376" transform="matrix(.21197 0 0 .21197 1193.3 1694.9)"><path id="path378" d="m0 0s50.62-26.6 71.94-35.62c27.07-4.1 50.85-8.522 50.85-8.522v-4.602s-49.21 5.096-58.24 8.704c-9.022 3.598-80.38 37.69-80.38 37.69l15.82 2.35z" fill="#615552"/></g><g id="g380" transform="matrix(.21197 0 0 .21197 1145.4 1693)"><path id="path382" d="m0 0s-26.25 35.27-41.01 45.93c-14.76 6.561-89.1 0-89.1 0s0.524 7.772 3.793 8.201c3.267 0.424 86.79 13.13 91.38 12.3 4.57-0.81 42.58-33.19 42.58-33.19l-7.656-33.24z" fill="#615552"/></g><g id="g384" transform="matrix(.21197 0 0 .21197 1127.3 1703.7)"><path id="path386" d="m0 0-73.22 58h6.902l77.89-51.86-11.57-6.145z" fill="#615552"/></g><g id="g388" transform="matrix(.21197 0 0 .21197 1165.6 1807.1)"><path id="path390" d="m0 0s56.55 58.68 64.02 66.15c30.94-1.07 165.4-27.32 165.4-27.32l-7.464-5.334s-150 19.86-153.4 17.72c-3.42-2.14-61.04-97.1-61.04-97.1l-7.465 45.88z" fill="#615552"/></g><g id="g392" transform="matrix(.21197 0 0 .21197 1151.8 1886.7)"><path id="path394" d="m0 0s-10.54 4.498-22.96 16.4c-14.28 13.68-61.14 69.43-61.14 69.43h-6.766s42.33-61.12 58.33-79.49l34.16-37.19-1.616 30.85z" fill="#615552"/></g><g id="g396" transform="matrix(.21197 0 0 .21197 1173.6 1912.2)"><path id="path398" d="m0 0c-0.864-6.287-53.26-74.98-55.75-87.27-11.22-6.901-22.07-14.69-36.09-21v18.04l31.24 12.1 58.34 80.42 2.256-2.255z" fill="#615552"/></g><g id="g400" transform="matrix(.21197 0 0 .21197 1147.4 1938.6)"><path id="path402" d="m0 0c-0.151-4.847 31.72-199.3 31.72-199.3l-3.37-44.5-39.83 253.1 10.94-7.108" fill="#615552"/></g><g id="g404" transform="matrix(.21197 0 0 .21197 1101.6 1750.9)"><path id="path406" d="m0 0s18.86-26.25 24.61-32.81c25.7-9.143 194.1-63.22 194.1-63.22l1.064 31.24s-177.1 39.2-184.5 41.74c-7.41 2.54-29.56 27.97-29.56 27.97l-5.742-4.922z" fill="#615552"/></g><g id="g408" transform="matrix(.21197 0 0 .21197 1138.1 1898.9)"><path id="path410" d="m0 0s-10.25-0.421-14.76 0c-4.922 2.474-6.356 3.088-6.356 3.088h-1.231s6.153-5.125 7.177-5.944c1.025-0.821 19.48-1.026 19.48-1.026l-4.31 3.882z" fill="#615552"/></g><g id="g412" transform="matrix(.21197 0 0 .21197 1159.7 1802.4)"><path id="path414" d="m0 0-9.777 45.47h-7.819l7.819-65.62 9.781 20.15z" fill="#615552"/></g><g id="g416" transform="matrix(.21197 0 0 .21197 1150 1767.5)"><path id="path418" d="m0 0c2.81 4.32-115.2 9.382-146.4 19.98-11.92 4.044-31.4 14.66-50.92 26.25-31.64 18.78-63.43 40.11-63.43 40.11h15.07s92.11-47.03 103-51.4c10.9-4.37 142.6-13.61 142.6-13.61l0.05-17.01" fill="#615552"/></g><g id="g420" transform="matrix(.21197 0 0 .21197 1151.8 1854.8)"><path id="path422" d="m0 0s-50.88 10.66-60.72 13.12c-11.48 13.94-24.2 35.68-24.2 35.68h-5.947s13.24-23.65 26.04-43.88c23.79-4.92 64.83-23.78 64.83-23.78v18.86z" fill="#615552"/></g><g id="g424" transform="matrix(.21197 0 0 .21197 1138.5 1857.5)"><path id="path426" d="m0 0-64.28-20.39 2.969-4.922 69.61 17.23-8.296 8.083z" fill="#615552"/></g><g id="g428" transform="matrix(.21197 0 0 .21197 1153.4 1860.7)"><path id="path430" d="m0 0c2.793 0.551 71.01 30.12 72.65 30.12 2.73-2.73 1.1-9.09 1.1-9.09l-70.47-39.31-3.279 18.28z" fill="#615552"/></g><g id="g432" transform="matrix(.21197 0 0 .21197 1169.1 1641.7)"><path id="path434" d="M0,0,68.35,93.45,62.79,97.19-20.78,0,0,0z" fill="#615552"/></g><g id="g436" transform="matrix(.21197 0 0 .21197 1163.7 1659.9)"><path id="path438" d="m0 0c3.571 3.451-23.58 27.91 7.333 46.84 9.799 6.002 22.9-5.165 26.16-8.176l-1.001 61.68s15.68 14.83 25.78-3.372c-0.675 8.058 5.38 24.23 16.16 19.52 10.78-4.714 15.49-15.49 9.431-28.29 0.014-0.021 0.028-0.045 0.051-0.079 5.252-0.31 9.442-1.418 12.79-3.097 1.345 1.096 2.174 2.499 1.977 3.853-0.67 4.715-12.23 26.94-1.398 30.3 10.83 3.371 17.56 0 17.56 0s-14.15 28.29 10.77 26.94c24.92-1.341 23.58-28.29 23.58-28.29s3.375 28.39 20.88 28.34 36.37-13.52 20.88-43.83c-2.695-3.361-6.744-26.94-0.677-24.24 6.062 2.694 21.55 20.88 30.98 11.45 9.425-9.428 6.733-17.51 6.733-17.51s6.73 22.9 16.16 16.84c9.43-6.061-5.386-22.22-5.386-22.22s59.27 33.68 73.41 10.1c14.15-23.58-8.08-53.88-17.51-56.58l3.369-4.709s19.95 6.056 18.73-6.739c-1.222-12.79-21.42-12.79-25.47-9.433 5.386-4.713 15.47-0.668 17.5-7.403 0.806-2.661-0.403-5.212-2.144-7.324 4.581 3.178 10.31 5.748 12.93 1.261 4.713-8.08 9.426-10.78 9.426-10.78s-8.077 11.45 3.371 22.9c11.44 11.45 24.92 5.388 24.92 5.388s-1.349 17.51 11.45 19.53c12.8 2.015 33.01-12.8 22.9-24.25-10.1-11.45-9.429-14.81-9.429-14.81s19.53 3.363 19.53-7.412-13.48-14.15-13.48-14.15-4.037-10.1 0.678-11.44c4.709-1.344 18.19 8.755 21.55 0 3.369-8.754-4.035-14.82-4.035-14.82s26.27 18.87 35.02 6.737c8.749-12.12 0-22.22 0-22.22s14.81-2.69 10.78-11.45c-4.048-8.754-31.66 0-31.66 0s6.065-14.14-11.46-12.79c-17.51 1.34-22.89 28.29-22.89 28.29s-0.678-4.718-8.089-8.763c-5.212-2.845-14.41 3.312-18.7 7.211 1.276-3.752 1.102-10.47-6.21-15.96-10.78-8.088-20.2-1.354-20.2-1.354s13.46-22.9-11.46-24.92c-24.92-2.017-26.93 22.23-32.32 18.86-4.714-4.043 2.025-13.04-9.428-18.98-9.976-5.168-18.91 13.55-21.06 18.48 1.761-4.476 6.869-20.93-9.924-28.46-19.53-8.753-28.96 14.66-33 11.71-4.04-2.954-6.063-42.69-33.68-31.91-27.61 10.77 3.372 55.22-12.8 54.55-16.16-0.675 2.699-18.34-14.82-22.64-17.51-4.295-21.55 9.168-21.55 9.168s2.022-30.3-20.88-30.31c-22.9 0-15.49 45.8-23.57 42.43-8.078-3.367 0.362-14.8-15.49-21.29-36.82-15.07-37.64 35.44-37.64 35.44l-0.044 2.634c-0.373 0.06-0.746 0.128-1.144 0.253-20.62 6.323-1.147 18.39-8.037 21.84-6.895 3.445-7.615-28.16-26.22-5.75-9.243 11.14 7.333 29.88 7.333 29.88s-26.45-20.42-29.27 9.484c-2.69 29.27 18.4 20.58 21.98 24.03" fill="#457840"/></g><g id="g440" transform="matrix(.21197 0 0 .21197 1200.1 1734.7)"><path id="path442" d="m0 0c-19.96-18.86 31.77-29.8 46-26.69 14.22 3.105 4.769 33.78 4.769 33.78s18.63-38.51 45-25.72 13.92 33.6 6.667 40.3c-7.252 6.691 7.323 21.72 16.54 20.16 9.211-1.559 20.44-23.5 36.07-10.84s-4.135 25.12-4.135 25.12 28.85-16.91 42.12-5.302c13.26 11.61-7.682 23.53-1.517 31.97 6.163 8.431 17.9-1.933 17.9-1.933s16.11-29.7 25.08-37.05c8.961-7.344 24.31 12.29 34.3 15.34 12.26-11.55 47.62 1.424 57.83 16.68 10.21 15.27-7.368 19.66-7.368 19.66s18.4 0.123 22.57 16.18c12.18 26.74-10.35 42.21-8.099 48.34 2.254 6.125 23.95-17.12 38.82-9.101 14.86 8.018-3.744 21.08-1.575 25.75 2.173 4.669 23.38-17.38 41.78-7.73 18.4 9.642-6.222 17.09-8.658 22.54-2.434 5.445 19.81-6.202 37.92 10.42 18.12 16.62-2.851 41.3-22.68 50.73-19.83 9.431-42.59-19.04-42.59-19.04s-2.356 27.49-14.06 31.44c-11.7 3.946-25.37-16.27-34.31-15.34-8.935 0.932-9.866-6.497-15.15 8.482 11.32 9.619 22.64 50.97 4.957 71.46-17.67 20.49-44.04-12.59-36.39-23.36 7.652-10.77-10.24-8.837-10.24-8.837s-9.776 15.51-27.76 1.779c-18-13.72 6.399-39.72 6.399-39.72l-39.82-17.8s9.836 8.658-7.934 17.74c-17.77 9.086-23.68-2.069-35.52-7.358-11.83-5.288-16.06 4.173-8.635 16.15 21.64 5.555 34.76 11.13 25.87 32.09-8.893 20.95-25.78 8.963-25.78 8.963s22.35 7.156 7.694 30.42c-14.65 23.25-42.46-16.15-46.13-20.62 0 0-2.296 58.48-33.37 59.82-59.83 2.589-20.85-57.1-20.85-57.1s-7.971 16.77-25.1 9.589c-17.13-7.184-6.979-58.48 9.902-57.08 16.88 1.399 6.248-7.617 1.734-9.16-4.517-1.539-11.72 6.114-22.37 1.356-10.64-4.759-7.511-17.08-5.309-19.88-6.804 3.584-14.79 28.87-37.36 21.15-22.57-7.73-1.614-46.14-1.614-46.14s-6.199 4.328-16.75-2.752c-10.55-7.082 6.428-30.25 6.428-30.25s-11.08 12.08-33.04 9.36c-21.96-2.726-20.42-25.22-20.42-25.22s-4.222 23.19-21.4 15.04c-17.17-8.146-19.37-63.54 8.519-62.43 10.12 1.689 18.38-4.085 14.39-6.811-3.985-2.729-25.37-8.324-19.64-20.61 11.68-25.07 29.9 2.961 34.3-2.646 0 0-29.2-44.76-6.026-54.26 23.18-9.503 61.12-12.89 61.96 20.14 0.74 3.641 9.757 3.568 7.694-2.402-2-6.02-32.78-24.99-15.56-38.11s24.97-8.24 24.97-8.24l-10.98-12.47z" fill="#457840"/></g><g id="g444" transform="matrix(.21197 0 0 .21197 1134.4 1752.5)"><path id="path446" d="m0 0s7.62 24.96-5.017 34.1c-12.63 9.135-29.81-4.259-29.81-4.259s-5.361 28-32.76 26.79c-27.4-1.218-7.892-43.84-7.892-43.84s-17.83 21.96-31.07 5.48c-11.26-14 1.825-28.62-7.307-23.14 0.302 17.96-8.83 37.3-30.75 31.2 0 0-39.27-11.87-3.995-47.64-4.833-1.826-8.483 8.524-16.4 0-7.917-8.53-4.87-13.4-4.87-13.4s-9.743 12.79-22.53 6.694c-12.78-6.086 1.218-32.26-11.57-30.44-12.79 1.822 0.673 35.92-40.46 37.14-41.13 1.216-46.06-64.54-31.12-66.37 7.639-0.607 0-2.434 0-2.434s-11.23-20.7 8.25-27.4c19.48-6.696 53.4 4.877 54.1 0 0.699-4.87-9.652-7.304-4.784-25.57 4.871-18.27 26.18-9.737 26.18-9.737s-2.856-7.923 9.833-13.4c0 0 14.52-7.305 21.82 0 7.307 7.304 0.61 14.01 4.262 12.18s5.476-9.748 10.35-6.704c4.872 3.051 4.266 21.31 15.83 15.84 11.56-5.483-15.83-18.06-5.483-24.56 10.35-6.498 21.92-5.89 21.92-5.89s-11.57-15.22 1.218-17.05c12.78-1.822 40.23-1.214 36.55 14.61-3.671 15.84 6.678 4.875 6.678 4.875s-1.217-11.57 7.914-8.525c9.135 3.043 9.742 16.44 9.742 16.44s4.623-16.44 16.32-17.65c11.69-1.218 37.87 6.088 26.91 25.57s-12.93 31.05-8.291 34.7c4.635 3.651 10.4-1.217 18.48-1.826 8.078-0.608 9.238 9.743 9.238 9.743s-0.417-19.48 10.78-17.05c11.19 2.435 11.48 14 11.48 14s45.38-7.915 38.69 23.14c-6.696 31.06-35.32 15.83-35.32 15.83l-0.606 6.095s25.87 3.649 19.94 12.78c-5.932 9.136-19.94 7.913-19.94 7.913s28.24-3.456 29.84 18.27c1.825 24.97-17.1 31.66-32.6 24.36-15.5-7.307-22.26-7.307-22.26-7.307s11.52 7.916 0 12.18l-11.34 4.15z" fill="#457840"/></g><g id="g448" transform="matrix(.21197 0 0 .21197 1167.9 1808.5)"><path id="path450" d="m0 0c2.987-0.996 25.97 20.8 11.32 46.66-14.64 25.86-20.6 12.93-20.6 12.93s21.55 17.91 9.279 31.83c-12.26 13.93-33.16 0-33.16 0s16.72 57.7-18.49 67.64c-35.22 9.944-44.17-13.93-44.17-13.93s7.851 25.86-15.47 26.86c-23.33 0.992-32.78-14.92-25.07-35.82 7.718-20.88-10.19-13.92-14.17-12.93-3.977 0.997 5.719 24.86-16.54 28.85-22.26 3.974-22.26-33.82-14.29-39.8 7.953-5.961-3.981-16.91-10.95-14.91-6.964 1.985 3.981 22.88-8.952 40.78s-23.87-1.995-23.87-1.995 8.541 21.88-20.6 26.86c-29.14 4.976-24.17-35.81-24.17-35.81s-29.84-2.982-21.88-19.89c7.959-16.91 31.91-17.89 26.9-24.86-5.017-6.976-12.69 10.93-28.25 7.948-15.56-2.99-9.595-22.88-9.595-22.88s-1.986 8.95-18.9 4.974c-16.91-3.981-37.8-28.63-21.88-41.67 15.92-13.03 57.69-7.067 57.69-7.067s-20.89-7.961-15.92-21.89c0 0 3.977-21.88 18.9-14.92 14.93 6.961 45.76 14.92 45.76 14.92s-32.24-22.17-13.63-35.46c18.6-13.28 49.44-15.28 46.45 4.62-2.983 19.89 12.93 23.87 13.93 19.89 0.993-3.977-16.91-40.78-0.993-45.76 15.92-4.973 68.12 11.94 59.92 27.85-8.198 15.92 3.741 4.339 3.741 4.339s-11.14-40.97 28.94-45.95c17.04-2.121 35.71 21.72 35.71 21.72s-13.44-21.22-4.733-22.88c8.712-1.661 16.08 9.947 16.08 9.947s-8.555-23.87 8.951-27.85c17.5-3.982 41.27 21.05 41.27 21.05 0.273 0.77 1.68 66.43 1.68 66.43" fill="#457840"/></g><g id="g452" transform="matrix(.21197 0 0 .21197 1157.3 1858.5)"><path id="path454" d="m0 0s4.944 27.18-23.07 29.66c-9.88-9.89-25.7-22.25-27.27-14.83-1.563 7.415 36.16 21.42 0 36.24 0.908 4.945-3.212 15.65-10.63 10.71-7.414-4.942-14.83-10.71-14.83-10.71s-18.12 20.67-32.12 11.98c-14.01-8.689 4.118-25.98 0-38.34-4.121-12.36-16.48-16.48-20.6-4.124-4.121 12.36 0.282 18.95-14.69 24.71-14.97 5.766-16.62-12.71-16.62-12.71s-13.18 7.883-18.12 0c-4.944-7.876 14-26.82 14-26.82s-19.77 6.588-21.42-9.059c-18.12 9.882-36.76 4.938-22.24-36.25 8.051-22.85 30.48 8.233 39.54 0 0 0 0-41.19 25.54-33.78 25.54 7.417 10.18 29.66 19.92 33.78 9.738 4.115 11.46-3.298 16.36-11.53 4.903-8.241 38.68-32.13 46.09-7.414 7.415 24.71 32.27 23.88 32.2 18.12-0.071-5.772 14.76-30.49 32.06-22.24 17.3 8.239 27.39 24.72 6.278 32.13-21.11 7.415-30.99 14-26.88 17.3 4.09 3.283 16.45 13.17 16.45 13.17" fill="#457840"/></g><g id="g456" transform="matrix(.21197 0 0 .21197 1145.8 1906)"><path id="path458" d="m0 0s-26.02 42.46-50.69 15.06c-24.65-27.4 0-24.65 0-24.65s-17.8 31.05-35.61 16.89c-17.81-14.15-15.07-33.33-8.219-42.92 6.85-9.585-34.24 8.226-35.62-8.215-1.372-16.43 1.37-20.55 6.854-31.5-13.7 2.745-47.95 5.479-54.8-16.6-11.23-36.18 15.07-64.22 65.76-25.86 12.33 13.7 24.42 19.66 24.48 10.47 0.18-28.27 27.58-33.73 50.87-23.46 23.28 10.25 19.41 32.16 19.41 32.16s6.611-49.31 32.63-30.13c26.03 19.18 32.88 36.82 32.88 36.82s17.54-54.39 42.46-52.45c61.61 4.8 30.88 72.04 26.85 73.43-4.029 1.4 22.88 10.08 0.234 28.21-15.23 12.19-24-12.5-28.02-6.516 22.2 26.06 17.84 37.9 7.822 49.52-32.7 37.8-33.98-24.01-49.63-23.45-8.21 0.29 20.13 28.92-2.61 42.36-43 25.41-45.16-19.15-45.16-19.15" fill="#457840"/></g><g id="g460" transform="matrix(.21197 0 0 .21197 1147.2 1937.7)"><path id="path462" d="m0 0s21.47 13.94 9.092 28.71c-12.37 14.76-35.34-9.843-35.34-9.843s-4.423 15.17-19.03 14.56c-14.6-0.613-16.24-20.3-8.041-33.42 8.202-13.12-7.382-3.28-15.59 0-8.202 3.282-24.61-0.819-20.5-21.33 4.101-20.5 6.561-58.24 25.43-41.83 18.86 16.4 24.64 22.14 31.18 15.58 6.548-6.562 15.46-34.3 27.41-19.61s11.13 4.849 11.13 4.849 3.28-16.51 15.58-9.08c12.3 7.438 7.382 15.64 7.382 15.64s31.27-18.04 30.4 8.204c-0.868 26.25-7.43 31.46-36.14 27.62-28.7-3.83-29.19 14.67-22.96 19.95" fill="#457840"/></g><g id="g464" transform="matrix(.21197 0 0 .21197 1153.1 1690.1)"><path id="path466" d="m0 0c1.944 0.635 108.6 37.58 119 40.04 21.06 8.203 97.7 33.24 97.7 33.24s0.087-5.031 0-5.031c-0.091 0-69.22-36.65-85.1-40.88-15.9-4.23-140.9-60.21-140.9-60.21l9.271 32.84z" fill="#615552"/></g><g id="g468" transform="matrix(.21197 0 0 .21197 1149.5 1752.6)"><path id="path470" d="m0 0 170.7 58.16v-19.03s-119.9-49.84-132.1-55.13c-34.69-14.95-64.08-28.74-64.08-28.74l25.48 44.74z" fill="#615552"/></g><g id="g472" transform="matrix(.21197 0 0 .21197 1121.4 1700.4)"><path id="path474" d="m0 0s-30.51 28.36-16.8 42.32c13.71 13.97 30.65-16.27 30.65-16.27s-12.6 16.58-2.204 23.25 20.27-0.653 20.27-0.653-23.04 11.74-24.56 31.12c-1.509 19.38 12.12 34.8 34.4 17.78 0 0 8.897-6.083 15.84-0.17 6.946 5.907-10.4 3.556-9.072 16.26 1.329 12.71 16.46 12.38 16.46 12.38s-23 20.51-16.17 30.04c6.839 9.54 35.11 21.59 41.84-9.054 1.112-1.953 12.35-15.56 12.71-1.59 0.374 13.95-22.17 30.67 8.839 56.72 34.25 28.75 62.84-1.535 62.84-1.535s-11.15 19.46 3.621 24.16c14.77 4.704 23.21-16.55 23.95-18.29 0.848-1.966 3.289 16.25 20.58 15.66 17.32-0.576 20.07-13.12 20.07-13.12s-4.075 7.964 0.295 20.51c3.702 10.63 12.45 23.29 34.76 19.62 38.94-6.392 10.08-45.55 10.08-45.55 0.334-10.88 3.653-7.23 13.09-9.545 9.437-2.307 4.871-12.8 4.871-12.8s10.28 21.97 20.1 11.71c9.804-10.26-2.66-28.54-2.66-28.54s21.16 38.43 38.25 16.64c20.03-25.54-30.71-44.72-30.71-44.72s1.531-6.969 9.548-5.937c8.022 1.032 17.51 14.07 29.07 11.5 11.56-2.571 10.92-12.21 10.92-12.21s-9.702 28.55 18.58 31.11c28.28 2.559 44.7-28.16 31.94-39-12.75-10.84-10.02-13.89-3.309-13.14 6.7 0.739 11.3 14.17 24.48 10.49 13.18-3.682 9.383-17.67 9.383-17.67s12.03 7.762 16.38 3.598c4.341-4.149-1.483-12.01-1.483-12.01s39.55 13.8 40.52-9.353c0.964-23.16-36.67-39.46-45.39-21.66-8.715 17.81-12.5 16.24-13.05 12.47-0.548-3.768 5.316-5.407-2.639-12.99-7.948-7.585-17.02 8.674-16.95 2.113 0.073-6.555 31.65-12.76 22.62-27.89-9.038-15.13-24.24-5.326-24.24-5.326s17.48-10.77 6.405-19.78c-11.1-9.1-19.1-4.274-19.1-4.274s5.594-28.61-16.83-32.86c-22.42-4.244-18.05 38.35-15.12 37.52 2.928-0.809-8.275-18.61-15.55-13.64-7.28 4.98-10.07 14.58-10.07 14.58s11.07-12.9-1.77-20.1c-12.84-7.204-22.04 0.268-22.04 0.268s18.59-22.11 5.911-30.05c-12.67-7.952-32.99 9.492-35.4 1.662-2.4-7.827 3.604-19.65-3.017-26.95-6.62-7.3-27.36-6.745-28.15 6.227-0.787 12.97 5.084 23.76 5.084 23.76s-15.42-19.09-34.82-10.7c-13.84 5.98-10.51 3.873-24.4 14.49 0 0 13.02-24.89-7.449-28.66-20.45-3.768-41.67 8.371-37.04 34.22-0.721 6.41-2.399-7.833-12.64-4.965-10.25 2.858-15.08 18.6-13.81 15.96 1.261-2.65 10.79-21-12.04-29.66-22.82-8.666-35.02 6.182-39.78 15.36-4.759 9.184-0.932-8.236-12.03-7.759-11.1 0.487-10.34 18.92-18.51 18.58-8.24-0.34-5.33-41.33-34.16-33.79-28.84 7.54-9.07 38.94-12.72 41.77-3.66 2.827-6.01-23.97-21.45-19.33-15.44 4.63-7.431 27.57-7.431 27.57" fill="#457840"/></g><g id="g476" transform="matrix(.21197 0 0 .21197 1075.4 1660.3)"><path id="path478" d="m0 0s4.921 27.07-22.97 29.53c-9.842-9.84-25.59-22.14-27.15-14.76-1.558 7.383 36.01 21.33 0 36.09 0.903 4.923-3.198 15.59-10.58 10.66-7.383-4.921-14.77-10.66-14.77-10.66s-18.04 20.58-31.99 11.93c-13.94-8.649 4.101-25.88 0-38.18-4.1-12.3-16.4-16.4-20.51-4.102-4.102 12.31 0.283 18.86-14.62 24.61-14.9 5.739-16.54-12.66-16.54-12.66s-13.12 7.851-18.05 0c-4.921-7.842 13.94-26.71 13.94-26.71s-19.68 6.562-21.33-9.022c-18.04 9.843-36.6 4.919-22.15-36.09 8.02-22.76 30.35 8.202 39.37 0 0 0 0-41.01 25.43-33.63 25.42 7.383 10.14 29.52 19.83 33.63 9.697 4.1 11.41-3.28 16.3-11.48 4.884-8.205 38.51-31.99 45.9-7.384 7.382 24.61 32.13 23.79 32.06 18.05-0.07-5.745 14.7-30.35 31.92-22.15 17.22 8.205 27.27 24.61 6.253 31.99-21.02 7.383-30.86 13.94-26.76 17.22 4.23 3.266 16.53 13.11 16.53 13.11" fill="#457840"/></g><g id="g480" transform="matrix(.21197 0 0 .21197 1114.1 1710.7)"><path id="path482" d="m0 0s4.922 27.07-22.97 29.53c-9.842-9.842-25.59-22.15-27.15-14.76-1.558 7.382 36.01 21.32 0 36.09 0.902 4.92-3.199 15.58-10.58 10.66-7.384-4.921-14.77-10.66-14.77-10.66s-18.04 20.58-31.99 11.93c-13.94-8.649 4.1-25.88 0-38.18-4.101-12.3-16.4-16.4-20.5-4.1-4.102 12.3 0.281 18.86-14.62 24.61-14.9 5.742-16.55-12.66-16.55-12.66s-13.12 7.85-18.04 0c-4.922-7.845 13.94-26.71 13.94-26.71s-19.68 6.562-21.33-9.022c-18.04 9.843-36.6 4.921-22.15-36.09 8.02-22.76 30.35 8.203 39.37 0 0 0 0-41.01 25.43-33.63 25.42 7.382 10.14 29.53 19.83 33.63 9.695 4.102 11.41-3.279 16.3-11.48 4.883-8.204 38.51-31.99 45.9-7.382 7.383 24.61 32.13 23.79 32.06 18.04-0.069-5.742 14.7-30.35 31.92-22.15 17.22 8.202 27.27 24.61 6.255 31.99-21.02 7.383-30.86 13.94-26.76 17.22 4.22 3.276 16.52 13.12 16.52 13.12" fill="#457840"/></g><g id="g484" transform="matrix(.21197 0 0 .21197 1082.2 1732)"><path id="path486" d="m0 0s7.62 24.96-5.017 34.09c-12.64 9.135-29.81-4.262-29.81-4.262s-5.362 28.01-32.76 26.79c-27.4-1.214-7.893-43.84-7.893-43.84s-17.83 21.95-31.07 5.482c-11.26-14 1.828-28.62-7.303-23.13 0.301 17.95-8.833 37.29-30.75 31.2 0 0-39.27-11.87-3.997-47.64-4.832-1.827-8.484 8.529-16.4 0-7.917-8.528-4.87-13.39-4.87-13.39s-9.743 12.78-22.53 6.693c-12.78-6.088 1.218-32.27-11.57-30.44-12.79 1.828 0.674 35.92-40.46 37.14-41.13 1.217-46.06-64.54-31.11-66.36 7.637-0.611 0-2.431 0-2.431s-11.24-20.71 8.249-27.4c19.48-6.697 53.4 4.869 54.1 0 0.699-4.871-9.654-7.309-4.784-25.58 4.871-18.27 26.18-9.74 26.18-9.74s-2.854-7.918 9.834-13.39c0 0 14.52-7.31 21.83 0 7.305 7.305 0.607 14 4.26 12.18 3.653-1.826 5.476-9.742 10.35-6.7 4.875 3.047 4.269 21.31 15.84 15.83 11.56-5.48-15.83-18.06-5.482-24.56 10.35-6.492 21.92-5.884 21.92-5.884s-11.57-15.23 1.219-17.05c12.78-1.827 40.22-1.217 36.55 14.61-3.672 15.83 6.679 4.874 6.679 4.874s-1.22-11.57 7.912-8.53c9.136 3.047 9.743 16.44 9.743 16.44s4.624-16.44 16.32-17.66c11.69-1.214 37.87 6.088 26.91 25.57s-12.93 31.06-8.292 34.71c4.636 3.65 10.4-1.222 18.48-1.826 8.078-0.612 9.239 9.743 9.239 9.743s-0.417-19.49 10.78-17.05c11.19 2.434 11.48 14 11.48 14s45.38-7.916 38.68 23.14c-6.695 31.05-35.31 15.83-35.31 15.83l-0.607 6.089s25.87 3.657 19.94 12.79c-5.93 9.137-19.94 7.914-19.94 7.914s28.24-3.456 29.83 18.27c1.827 24.96-17.1 31.65-32.6 24.35-15.5-7.305-22.25-7.305-22.25-7.305s11.52 7.92 0 12.18l-11.34 4.34z" fill="#457840"/></g><g id="g488" transform="matrix(.21197 0 0 .21197 1121.8 1689.8)"><path id="path490" d="m0 0c2.81 4.32-115.2 9.383-146.4 19.98-11.92 4.041-31.4 14.66-50.92 26.25-31.64 18.78-63.43 40.11-63.43 40.11h15.07s92.11-47.03 103-51.4c10.9-4.37 142.6-13.61 142.6-13.61l0.05-17.01" fill="#615552"/></g><g id="g492" transform="matrix(.21197 0 0 .21197 1088.8 1828.5)"><path id="path494" d="m0 0s7.619 24.96-5.017 34.09c-12.64 9.133-29.81-4.261-29.81-4.261s-5.361 28-32.76 26.79c-27.4-1.215-7.891-43.84-7.891-43.84s-17.83 21.95-31.07 5.483c-11.26-14 1.827-28.62-7.304-23.13 0.301 17.95-8.832 37.29-30.75 31.2 0 0-39.27-11.87-3.997-47.64-4.831-1.827-8.483 8.529-16.4 0-7.917-8.526-4.87-13.39-4.87-13.39s-9.743 12.78-22.53 6.691c-12.78-6.087 1.217-32.27-11.57-30.44-12.79 1.827 0.673 35.92-40.46 37.14-41.13 1.217-46.06-64.54-31.11-66.36 7.638-0.61 0-2.432 0-2.432s-11.23-20.7 8.251-27.4c19.48-6.697 53.4 4.869 54.1 0 0.699-4.87-9.655-7.307-4.784-25.57 4.87-18.27 26.18-9.742 26.18-9.742s-2.854-7.917 9.835-13.39c0 0 14.52-7.309 21.82 0 7.307 7.305 0.608 14 4.261 12.17 3.653-1.826 5.476-9.743 10.35-6.7 4.874 3.047 4.268 21.31 15.84 15.83 11.56-5.481-15.83-18.06-5.482-24.56 10.35-6.491 21.92-5.883 21.92-5.883s-11.57-15.22 1.218-17.05c12.78-1.827 40.23-1.218 36.55 14.61-3.672 15.83 6.678 4.873 6.678 4.873s-1.218-11.57 7.914-8.529c9.134 3.047 9.741 16.44 9.741 16.44s4.624-16.44 16.32-17.66c11.69-1.215 37.87 6.087 26.92 25.58-10.96 19.48-12.93 31.05-8.293 34.7 4.636 3.65 10.4-1.22 18.48-1.827 8.078-0.61 9.238 9.745 9.238 9.745s-0.417-19.49 10.78-17.05c11.19 2.434 11.48 14 11.48 14s45.38-7.914 38.68 23.14c-6.696 31.05-35.31 15.83-35.31 15.83l-0.607 6.09s25.87 3.656 19.94 12.78c-5.931 9.136-19.94 7.914-19.94 7.914s28.24-3.454 29.83 18.27c1.827 24.97-17.1 31.66-32.6 24.35-15.5-7.304-22.26-7.304-22.26-7.304s11.52 7.92 0 12.18l-11.34 4.35z" fill="#457840"/></g><g id="g496" transform="matrix(.21197 0 0 .21197 1188.9 1791.1)"><path id="path498" d="m0 0s7.621 24.96-5.017 34.09c-12.64 9.134-29.81-4.26-29.81-4.26s-5.362 28-32.76 26.79c-27.4-1.216-7.892-43.84-7.892-43.84s-17.83 21.95-31.07 5.483c-11.26-14 1.826-28.62-7.305-23.14 0.302 17.96-8.832 37.29-30.75 31.2 0 0-39.27-11.87-3.998-47.64-4.83-1.825-8.484 8.53-16.4 0-7.918-8.524-4.871-13.39-4.871-13.39s-9.742 12.78-22.53 6.693c-12.78-6.087 1.218-32.27-11.57-30.44-12.79 1.827 0.674 35.92-40.46 37.14-41.13 1.218-46.06-64.53-31.11-66.36 7.638-0.609 0-2.432 0-2.432s-11.24-20.7 8.25-27.4c19.48-6.696 53.4 4.871 54.1 0 0.698-4.869-9.654-7.308-4.785-25.57 4.87-18.27 26.18-9.741 26.18-9.741s-2.855-7.918 9.835-13.39c0 0 14.52-7.31 21.82 0 7.307 7.304 0.608 14 4.262 12.18 3.652-1.828 5.476-9.744 10.35-6.701 4.873 3.047 4.269 21.31 15.84 15.83 11.56-5.479-15.83-18.06-5.482-24.56 10.35-6.492 21.92-5.883 21.92-5.883s-11.57-15.23 1.219-17.05c12.78-1.828 40.23-1.216 36.55 14.61-3.672 15.83 6.677 4.872 6.677 4.872s-1.217-11.57 7.914-8.528c9.135 3.047 9.742 16.44 9.742 16.44s4.625-16.44 16.32-17.66c11.69-1.214 37.87 6.087 26.92 25.58-10.96 19.48-12.93 31.05-8.295 34.71 4.637 3.65 10.4-1.221 18.48-1.827 8.077-0.612 9.238 9.743 9.238 9.743s-0.416-19.49 10.78-17.05c11.19 2.435 11.48 14 11.48 14s45.38-7.913 38.69 23.14c-6.696 31.05-35.31 15.83-35.31 15.83l-0.606 6.09s25.87 3.656 19.94 12.78c-5.932 9.139-19.94 7.916-19.94 7.916s28.24-3.454 29.83 18.27c1.827 24.97-17.1 31.66-32.6 24.35-15.5-7.305-22.26-7.305-22.26-7.305s11.52 7.92 0 12.18l-11.34 4.34z" fill="#457840"/></g><g id="g500" transform="matrix(.21197 0 0 .21197 1173.2 1676.7)"><path id="path502" d="m0 0s4.922 27.07-22.97 29.53c-9.842-9.844-25.59-22.15-27.15-14.76-1.557 7.381 36.01 21.33 0 36.09 0.904 4.923-3.198 15.58-10.58 10.66-7.382-4.921-14.76-10.66-14.76-10.66s-18.04 20.58-31.99 11.93c-13.94-8.651 4.1-25.88 0-38.18-4.101-12.3-16.4-16.4-20.5-4.099-4.102 12.3 0.282 18.86-14.62 24.61-14.91 5.74-16.54-12.66-16.54-12.66s-13.12 7.85-18.05 0c-4.921-7.845 13.94-26.71 13.94-26.71s-19.68 6.56-21.33-9.025c-18.04 9.845-36.6 4.924-22.15-36.09 8.019-22.75 30.35 8.2 39.37 0 0 0 0-41.01 25.43-33.63 25.43 7.385 10.14 29.53 19.83 33.63 9.695 4.102 11.41-3.281 16.3-11.48 4.882-8.203 38.51-31.99 45.9-7.378 7.382 24.6 32.13 23.78 32.06 18.04-0.071-5.742 14.7-30.35 31.92-22.14 17.22 8.201 27.27 24.61 6.253 31.99-21.02 7.381-30.86 13.94-26.76 17.23 4.03 3.257 16.33 13.1 16.33 13.1" fill="#457840"/></g><g id="g504" transform="matrix(.21197 0 0 .21197 1183.1 1831.1)"><path id="path506" d="m0 0c-2.719-1.308-12.25 44.39 21.76 52.23 34.01 7.835 42.17-13.06 42.17-13.06s1.365 12.66 12.25 14.82c10.88 2.156 16.32 0 16.32 0s-21.77 20.44 0 21.74c21.76 1.309 20.41-16.97 20.41-16.97s31.29 28.72 57.14 20.89c25.85-7.833 8.162-27.42 0-32.64-8.164-5.226 12.21 5.22 8.827-13.06-3.382-18.28-14.27-22.2-22.43-24.81-8.161-2.609 17.65-13.11 22.43-9.167 4.778 3.95 14.3 28.76 30.62 20.92 16.33-7.838 5.441-40.48 0-40.48-5.438 0 0.918-11.75 8.625-13.06 7.701-1.307 15.87 16.98 37.63 13.06 21.76-3.917 16.32-33.96 12.24-33.96s50.34-2.609 47.62-30.03-31.89-44.4-41.11-30.03c-9.223 14.36-24.19 10.44-24.19 10.44s16.32-2.61 1.359-15.67-23.12-6.528-23.12-6.528 20.4-26.67-4.081-30.32c-24.49-3.642-35.41 13.34-36.07 22.48-0.662 9.136-23.79 7.835-22.43 3.92 1.362-3.92 5.444-29.34-23.13-32.31-28.57-2.953-31.29 18.75-31.29 18.75s1.361-21.57-17.68-19.02c-19.05 2.538-21.77 6.18-21.77 6.18s12.24-34.98-20.41-36.28c-32.64-1.308-32.64 33.4-39.44 36.28-6.802 2.893 5.438-12.78-12.25-21.92-17.68-9.142-25.85 16.02-25.85 16.02s4.076-23.85-19.73-21.24c-23.8 2.618-30.86 49.62-8.962 47.01 5.567 2.617-10.14 5.227-13.18 22.21-3.027 16.97 26.22 5.876 49.2 2.463-33.93 24.24-39.43 23.65-43.39 35.4-3.957 11.75-3.74 43.09 12.76 40.48 16.5-2.615-19.21 15.67 0 33.95 19.37 18.14 54.74 3.78 54.74 3.78" fill="#457840"/></g><g id="g508" transform="matrix(.21197 0 0 .21197 1178.4 1832.9)"><path id="path510" d="m0 0s21.47 13.94 9.091 28.71c-12.37 14.76-35.34-9.843-35.34-9.843s-4.421 15.18-19.03 14.56c-14.6-0.62-16.24-20.31-8.04-33.43 8.201-13.12-7.382-3.28-15.59 0-8.202 3.282-24.61-0.82-20.51-21.33 4.103-20.51 6.562-58.24 25.43-41.83 18.86 16.4 24.64 22.14 31.18 15.58 6.546-6.561 15.46-34.3 27.41-19.61s11.13 4.847 11.13 4.847 3.281-16.51 15.58-9.079c12.3 7.439 7.382 15.64 7.382 15.64s31.27-18.04 30.4 8.202c-0.868 26.25-7.429 31.46-36.14 27.62-28.69-3.83-29.18 14.67-22.95 19.96" fill="#457840"/></g><g id="g512" transform="matrix(.21197 0 0 .21197 1066.5 1850.1)"><path id="path514" d="m0 0c-3.165 3.28-15.83 31.72 8.438 43.75 24.26 12.02 39.03-24.07 45.36-16.41s-22.15 14.22-9.5 42.66c12.66 28.43 46.41 6.561 46.41 6.561s-2.108 24.32 13.72 28.02c15.82 3.698 14.76-18.17 23.21-11.61 8.438 6.561-7.389 37.18 16.88 47.03 24.26 9.844 19.12-21.88 19.12-21.88s10.79 22.97 28.54 16.4c17.75-6.56-2.663-30.62 7.542-38.28 10.2-7.658 11.57 22.97 30.93 13.12 19.36-9.844 17.25-31.71 17.25-31.71s13.96 12.03 21.22 7.651c7.261-4.37 33.63-29.53 10.43-42.65-23.1-13.06-7-10.87-10.3-18.53s10.4-21.87-28.6-24.06c-21.72-1.214-11.61 26.25-13.71 17.5-2.109-8.748-1.51-27.82-17.56-33.9-31.03-11.76-45.6 21.87-45.6 21.87s16.84-20.78-9.054-28.44c-25.89-7.652-32.22 24.06-32.22 24.06l-20.04-7.658c-21.1-7.65-26.37 10.94-26.37 10.94s5.276-21.87-15.82-19.69c-21.08 2.2-26.36 19.7-26.36 19.7s-21.09-17.5-33.75-4.376" fill="#457840"/></g><g id="g516" transform="matrix(.21197 0 0 .21197 1179.3 1831.7)"><path id="path518" d="m0 0c-12.79-12.08 20.36-19.09 29.48-17.1 9.114 1.989 3.057 21.64 3.057 21.64s11.94-24.68 28.84-16.48c16.9 8.198 8.922 21.54 4.271 25.83-4.644 4.289 4.696 13.92 10.6 12.92 5.903-0.998 13.1-15.06 23.12-6.947 10.02 8.115-2.651 16.09-2.651 16.09s18.49-10.83 26.99-3.395c8.5 7.44-4.926 15.08-0.973 20.49 3.952 5.404 11.47-1.238 11.47-1.238s10.33-19.03 16.07-23.74c5.743-4.708 15.58 7.875 21.98 9.831 7.857-7.404 30.52 0.911 37.06 10.69 6.544 9.784-4.722 12.6-4.722 12.6s11.79 0.079 14.46 10.37c7.808 17.14-6.634 27.05-5.189 30.98 1.444 3.921 15.35-10.97 24.88-5.836 9.526 5.139-2.398 13.51-1.01 16.5 1.394 2.992 14.98-11.14 26.78-4.955 11.79 6.181-3.988 10.96-5.55 14.44-1.561 3.489 12.7-3.975 24.3 6.676 11.62 10.65-1.827 26.47-14.53 32.51-12.71 6.045-27.3-12.2-27.3-12.2s-1.507 17.62-9.007 20.15c-7.497 2.532-16.26-10.43-21.98-9.827-5.726 0.593-6.324-4.167-9.707 5.434 7.252 6.162 14.5 32.67 3.176 45.79-11.33 13.13-28.23-8.067-23.32-14.97 4.905-6.905-6.563-5.664-6.563-5.664s-6.266 9.938-17.8 1.142 4.102-25.45 4.102-25.45l-25.52-11.41s6.305 5.548-5.084 11.37c-11.39 5.824-15.18-1.327-22.76-4.716-7.581-3.388-10.29 2.673-5.535 10.35 13.87 3.559 22.28 7.135 16.58 20.57-5.697 13.43-16.52 5.744-16.52 5.744s14.32 4.588 4.93 19.49c-9.385 14.9-27.21-10.35-29.56-13.22 0 0-1.472 37.48-21.38 38.34-38.34 1.659-13.36-36.59-13.36-36.59s-5.109 10.75-16.09 6.142c-10.98-4.603-4.473-37.48 6.348-36.58 10.82 0.895 4.004-4.882 1.111-5.871-2.898-0.986-7.516 3.918-14.34 0.869-6.824-3.052-4.816-10.94-3.406-12.74-4.36 2.298-9.478 18.5-23.94 13.55-14.47-4.953-1.036-29.57-1.036-29.57s-3.971 2.775-10.74-1.763c-6.757-4.54 4.123-19.38 4.123-19.38s-7.098 7.741-21.18 5.997c-14.08-1.745-13.09-16.16-13.09-16.16s-2.705 14.86-13.71 9.638c-11-5.22-12.42-40.72 5.461-40.01 6.485 1.081 11.78-2.62 9.223-4.365-2.554-1.75-16.26-5.334-12.59-13.21 7.489-16.06 19.17 1.898 21.99-1.695 0 0-18.72-28.68-3.863-34.78 14.85-6.09 39.17-8.26 39.71 12.9 0.474 2.334 6.252 2.287 4.928-1.537-1.569-3.46-21.3-15.62-10.27-24.02 11.04-8.411 16-5.283 16-5.283l-7.037-7.997z" fill="#457840"/></g><g id="g520" transform="matrix(.21197 0 0 .21197 1155.3 1949)"><path id="path522" d="m0 0s-15.23 9.756-6.45 20.08c8.776 10.33 25.07-6.885 25.07-6.885s3.138 10.62 13.5 10.18c10.36-0.43 11.52-14.2 5.7-23.38s5.24-2.296 11.06 0c5.81 2.295 17.45-0.575 14.54-14.92s-4.65-40.74-18.04-29.26c-13.38 11.47-17.48 15.49-22.12 10.9s-10.96-23.99-19.44-13.72c-8.476 10.28-7.895 3.392-7.895 3.392s-2.327-11.55-11.06-6.353c-8.726 5.204-5.237 10.94-5.237 10.94s-22.18-12.62-21.56 5.738c0.617 18.36 5.271 22.01 25.64 19.32 20.36-2.68 20.71 10.26 16.29 13.96" fill="#457840"/></g><g id="g524" transform="matrix(.21197 0 0 .21197 1218 1745)"><path id="path526" d="m0 0s-7.62 24.96 5.018 34.09c12.64 9.134 29.81-4.261 29.81-4.261s5.361 28 32.76 26.79c27.4-1.214 7.891-43.84 7.891-43.84s17.83 21.95 31.07 5.483c11.26-14-1.827-28.62 7.304-23.13-0.299 17.96 8.832 37.29 30.75 31.2 0 0 39.27-11.87 3.996-47.64 4.831-1.826 8.484 8.53 16.4 0 7.916-8.526 4.871-13.39 4.871-13.39s9.74 12.78 22.53 6.693c12.78-6.089-1.217-32.27 11.57-30.44 12.79 1.828-0.674 35.92 40.46 37.14 41.13 1.218 46.06-64.54 31.11-66.36-7.639-0.61 0-2.432 0-2.432s11.24-20.7-8.25-27.4c-19.48-6.697-53.4 4.869-54.1 0-0.698-4.87 9.655-7.308 4.785-25.57-4.871-18.27-26.18-9.74-26.18-9.74s2.854-7.918-9.834-13.39c0 0-14.52-7.308-21.82 0-7.306 7.306-0.608 14-4.263 12.18-3.651-1.826-5.475-9.744-10.35-6.7-4.873 3.047-4.268 21.31-15.83 15.83-11.56-5.481 15.83-18.06 5.481-24.56-10.35-6.491-21.92-5.883-21.92-5.883s11.57-15.23-1.217-17.05c-12.78-1.827-40.23-1.216-36.55 14.61 3.671 15.83-6.678 4.875-6.678 4.875s1.217-11.57-7.913-8.53c-9.136 3.046-9.743 16.44-9.743 16.44s-4.623-16.44-16.32-17.66c-11.69-1.213-37.87 6.087-26.92 25.58 10.96 19.48 12.93 31.05 8.295 34.71-4.639 3.65-10.41-1.221-18.48-1.827-8.078-0.611-9.239 9.744-9.239 9.744s0.418-19.49-10.78-17.05c-11.19 2.434-11.48 14-11.48 14s-45.38-7.914-38.68 23.14c6.695 31.05 35.31 15.83 35.31 15.83l0.606 6.088s-25.87 3.658-19.94 12.79c5.932 9.137 19.94 7.912 19.94 7.912s-28.24-3.453-29.83 18.27c-1.828 24.97 17.1 31.66 32.6 24.35 15.5-7.303 22.25-7.303 22.25-7.303s-11.52 7.921 0 12.18l11.34 4.34z" fill="#457840"/></g><g id="g528" transform="matrix(.21197 0 0 .21197 1188.9 1660.6)"><path id="path530" d="m0 0s-37.63 25.74-23.78 42.73c13.85 17 36.4-12.79 36.4-12.79s-16.1 15.84-5.143 24.52c10.95 8.694 22.92 2.344 22.92 2.344s-27.3 9.09-31.24 29.59c-3.921 20.5 9.668 39.03 36.73 24.18 0 0 10.72-5.169 17.87 2.197 7.152 7.359-12.13 2.24-12.08 16.02 0.043 13.79 17.13 15.72 17.13 15.72s-28.27 18.47-21.66 29.69c6.613 11.23 37.09 28.36 48.19-3.403 1.477-1.919 15.69-14.78 14.5 0.208-1.174 14.98-28.49 29.47 3.467 61.97 35.3 35.88 71 7.794 71 7.794s-14.79 19.13 1.312 26.38c16.1 7.246 28.05-14.21 29.08-15.96 1.181-1.976 1.845 17.86 21.41 19.83 19.58 1.982 24.12-11.02 24.12-11.02s-5.504 7.901-2.016 21.98c2.954 11.92 11.36 26.77 36.93 26.2 44.61-0.992 16.58-47.19 16.58-47.19 1.623-11.59 4.945-7.182 15.85-8.238 10.9-1.052 6.953-12.95 6.953-12.95s9.071 25.04 21.31 15.54c12.23-9.501 0.271-30.92 0.271-30.92s19.44 44.27 41.2 23.54c25.49-24.3-29.48-52.43-29.48-52.43s2.523-7.22 11.44-4.913c8.92 2.31 18.12 17.68 31.45 16.66 13.32-1.014 13.71-11.41 13.71-11.41s-14.2 29.07 17.38 36.06c31.58 6.985 53.6-23.4 40.46-36.9-13.13-13.5-9.693-16.36-2.224-14.55 7.465 1.796 11.12 16.85 26.38 14.9 15.27-1.96 12.6-17.48 12.6-17.48s12.67 10.11 18.05 6.308c5.369-3.785-0.296-13.06-0.296-13.06s42.99 20.7 46.74-3.914c3.742-24.63-36.81-47.7-48.67-29.98-11.86 17.73-15.95 15.49-16.13 11.38-0.186-4.112 6.609-4.983-1.486-14.29-8.088-9.306-20.17 6.717-19.34-0.287 0.83-6.999 37.13-8.896 28.68-26.43-8.451-17.53-26.72-9.334-26.72-9.334s20.93-8.886 9.485-20.18c-11.45-11.28-20.93-7.313-20.93-7.313s9.58-29.75-15.2-37.66c-24.78-7.904-24.73 38.29-21.33 37.85 3.393-0.424-7.192-21.14-15.96-16.91-8.776 4.228-13.02 14.08-13.02 14.08s13.96-12.13 0.308-21.76-24.86-3.023-24.86-3.023 23.48-20.84 10.1-31.24c-13.37-10.4-38.27 5.199-40.08-3.538-1.808-8.728 6.311-20.47-0.314-29.27-6.623-8.799-30.06-11.32-32.43 2.432-2.375 13.75 3.008 26.17 3.008 26.17s-15.19-22.73-38.02-16.67c-16.27 4.316-12.28 2.562-29.15 11.83 0 0 17.53-24.67-5.11-31.76-22.62-7.099-47.92 2.695-45.67 31.02-1.547 6.748-1.807-8.733-13.68-7.203-11.88 1.52-19.12 17.62-17.39 14.98 1.726-2.639 14.57-20.83-10.17-33.52-24.72-12.69-40.17 1.351-46.58 10.45-6.416 9.105-0.108-8.946-12.67-10.1-12.63-1.27-13.88 18.55-23.04 16.96-9.17-1.579-1.19-44.96-34.55-41.23s-14.68 40.28-19.12 42.76c-4.45 2.475-4.03-26.54-21.96-23.9s-11.53 28.37-11.53 28.37" fill="#457840"/></g><g id="g532" transform="matrix(.21197 0 0 .21197 1123 1705.8)"><path id="path534" d="m0 0s-26.87 30.32-46.48-7.807c4.906 20.7 29.58 71.54-35.4 71.35-67.22-0.203-46.84-49.02-37.94-61.37-10.16-7.258-22.52 6.538-31.23-2.177-8.715-8.719-10.17-20.34-10.17-20.34s-33.62 29.05-40.05 8.717c-6.427-20.33 9.543-40.67 9.543-40.67s-36.3 5.808-46.47-8.711c-10.17-14.53-9.8-69.35 46.47-55.19 20.95 5.268 2.554-36.68 33.05-42.49 30.5-5.807 38.77 26.51 38.77 26.51s11.73-33.61 33.51-29.77c21.78 3.832 29.78 21.05 29.78 21.05s-14.54-29.05 10.14-24.69c24.69 4.354 12.92 15.8 20.99 21.7 8.064 5.896 12.04-7.248 25.49-4.272 36.12 7.988 2.005 23.24 14.07 27.6 12.07 4.359 13.34-35.58 45.92-7.264 16.18 14.07-12.85 37.76-12.85 37.76s46.32-25.81 51.26 11.99c4.798 36.76-32.15 25.78-38.41 30.13-6.261 4.359 41.28 35.27-12.85 59.19-19.84 8.9-47.25-11.07-47.25-11.07" fill="#457840"/></g><g id="g536" transform="matrix(.21197 0 0 .21197 1079.6 1727.6)"><path id="path538" d="m0 0c17.02-16.07-27.08-25.4-39.21-22.75-12.12 2.645-4.065 28.79-4.065 28.79s-15.88-32.83-38.37-21.92c-22.48 10.9-11.87 28.65-5.683 34.36 6.182 5.703-6.243 18.52-14.1 17.19-7.852-1.329-17.43-20.04-30.75-9.24-13.32 10.79 3.525 21.41 3.525 21.41s-24.6-14.41-35.9-4.52c-11.3 9.898 6.549 20.06 1.293 27.25-5.254 7.188-15.26-1.647-15.26-1.647s-13.73-25.32-21.38-31.58c-7.642-6.263-20.73 10.48-29.25 13.08-10.45-9.849-40.59 1.213-49.3 14.22-8.705 13.02 6.282 16.76 6.282 16.76s-15.68 0.106-19.24 13.8c-10.38 22.79 8.826 35.98 6.906 41.21-1.921 5.22-20.42-14.6-33.09-7.761-12.67 6.835 3.192 17.97 1.343 21.96-1.852 3.979-19.93-14.82-35.62-6.591-15.68 8.221 5.303 14.57 7.381 19.21 2.074 4.642-16.89-5.288-32.33 8.879-15.45 14.17 2.43 35.21 19.33 43.25 16.9 8.042 36.3-16.23 36.3-16.23s2.009 23.44 11.98 26.8c9.971 3.365 21.63-13.87 29.25-13.07 7.616 0.792 8.411-5.543 12.91 7.228-9.646 8.201-19.3 43.46-4.224 60.92 15.07 17.47 37.55-10.73 31.02-19.92-6.523-9.181 8.73-7.534 8.73-7.534s8.333 13.22 23.67 1.52-5.454-33.86-5.454-33.86l33.94-15.17s-8.385 7.38 6.764 15.13c15.15 7.745 20.19-1.764 30.28-6.274 10.08-4.508 13.69 3.557 7.363 13.77-18.45 4.736-29.63 9.491-22.06 27.36 7.581 17.86 21.98 7.639 21.98 7.639s-19.06 6.099-6.56 25.93c12.48 19.82 36.2-13.77 39.33-17.58 0 0 1.958 49.86 28.45 51 51 2.207 17.77-48.67 17.77-48.67s6.795 14.3 21.4 8.174c14.6-6.124 5.95-49.85-8.442-48.66-14.4 1.192-5.326-6.495-1.477-7.808 3.851-1.313 9.996 5.209 19.07 1.155 9.076-4.058 6.404-14.56 4.527-16.95 5.8 3.056 12.61 24.61 31.85 18.03 19.24-6.588 1.377-39.34 1.377-39.34s5.283 3.692 14.28-2.344c8.991-6.039-5.479-25.79-5.479-25.79s9.442 10.3 28.17 7.982c18.72-2.326 17.41-21.5 17.41-21.5s3.6 19.77 18.24 12.82c14.64-6.942 16.51-54.16-7.264-53.22-8.626 1.439-15.67-3.486-12.27-5.807 3.397-2.33 21.63-7.098 16.75-17.57-9.959-21.37-25.49 2.527-29.25-2.255 0 0 24.9-38.15 5.137-46.26-19.63-8.15-51.97-11.03-52.7 17.12-0.63 3.1-8.318 3.04-6.559-2.05 1.757-5.08 28-21.25 13.32-32.43-14.68-11.19-21.29-7.03-21.29-7.03l9.358-10.63z" fill="#457840"/></g><g id="g540" transform="matrix(.21197 0 0 .21197 786.85 1219.7)"><g id="g548"><g id="g550" clip-path="url(#clipPath544)" opacity=".14999"><g id="g552" transform="translate(1646.5 2222.8)"><path id="path554" d="m0 0c0.172-1.317-0.032-2.743-0.759-4.303-0.599-1.285-1.219-2.401-1.854-3.376-3.047 6.211-5.969 10.69-5.969 10.69 1.444 1.839 4.636-0.571 8.582-3.012" fill="#22191e"/></g></g></g></g><g id="g556" transform="matrix(.21197 0 0 .21197 786.85 1219.7)"><g id="g564"><g id="g566" clip-path="url(#clipPath560)" opacity=".14999"><g id="g568" transform="translate(1482.8 2416.5)"><path id="path570" d="m0 0c-1.581 1.925-8.409 11.44-16.39 17.84 3.96 11.8 10.99 23.06 23.41 23.6 1.759 0.077 3.409 0.083 4.972 0.037-10.94-14.78-11.99-41.48-11.99-41.48" fill="#22191e"/></g></g></g></g><g id="g572" transform="matrix(.21197 0 0 .21197 786.85 1219.7)"><g id="g580"><g id="g582" clip-path="url(#clipPath576)" opacity=".14999"><g id="g584" transform="translate(1651.9 2292.6)"><path id="path586" d="m0 0c-0.113-0.479-0.166-0.763-0.166-0.763s0.023 0.339 0.019 0.921c0.051-0.051 0.098-0.106 0.147-0.158" fill="#22191e"/></g></g></g></g><g id="g588" transform="matrix(.21197 0 0 .21197 786.85 1219.7)"><g id="g596"><g id="g598" clip-path="url(#clipPath592)" opacity=".14999"><g id="g600" transform="translate(1577.7 2154.5)"><path id="path602" d="m0 0c-0.228-0.258-0.47-0.513-0.734-0.768l-1.22 1.388s0.638-0.403 1.954-0.62" fill="#22191e"/></g></g></g></g><g id="g604" transform="matrix(.21197 0 0 .21197 786.85 1219.7)"><g id="g612"><g id="g614" clip-path="url(#clipPath608)" opacity=".14999"><g id="g616" transform="translate(1405.7 2350.5)"><path id="path618" d="m0 0-13.6 6.077c4.956 2.338 8.8 2.777 12.11 2.164-2.505-4.724 1.486-8.241 1.486-8.241" fill="#22191e"/></g></g></g></g><g id="g620" transform="matrix(.21197 0 0 .21197 786.85 1219.7)"><g id="g628"><g id="g630" clip-path="url(#clipPath624)" opacity=".14999"><g id="g632" transform="translate(1446.1 2410.1)"><path id="path634" d="m0 0c-4.817 1.727-12.95 2.372-18.03-9.599-7.58-17.87 3.602-22.62 22.05-27.36 6.325-10.21 2.72-18.28-7.363-13.77-9.167 4.099-14.17 12.33-26.38 7.973-10.55 4.171-15.41 10.2-9.73 23.59 5.08 11.97 13.22 11.32 18.03 9.601-4.801 3.099-11.26 10.24-2.616 23.97 5.003 7.941 11.81 7.304 18.37 3.448-3.537-9.793 1.642-15.25 5.67-17.85" fill="#22191e"/></g></g></g></g><g id="g636" transform="matrix(.21197 0 0 .21197 786.85 1219.7)"><g id="g644"><g id="g646" clip-path="url(#clipPath640)" opacity=".14999"><g id="g648" transform="translate(1656 2251.3)"><path id="path650" d="m0 0c-1.215-2.46-2.769-4.578-4.686-6.183-0.332 0.171-0.614 0.331-0.833 0.482-2.437 1.664 0.49 4.663 5.519 5.701" fill="#22191e"/></g></g></g></g><g id="g652" transform="matrix(.21197 0 0 .21197 786.85 1219.7)"><g id="g660"><g id="g662" clip-path="url(#clipPath656)" opacity=".14999"><g id="g664" transform="translate(1583.7 2194.6)"><path id="path666" d="m0 0c-1.76 5.088 5.928 5.149 6.558 2.045 0.138-5.412 1.456-9.664 3.622-12.96-4.496 4.784-9.451 8.81-10.18 10.92" fill="#22191e"/></g></g></g></g><g id="g668" transform="matrix(.21197 0 0 .21197 786.85 1219.7)"><g id="g676"><g id="g678" clip-path="url(#clipPath672)" opacity=".14999"><g id="g680" transform="translate(1279.2 2271.4)"><path id="path682" d="m0 0c-0.23 0.63-0.708 0.888-1.383 0.88 10.63 2.462 21.36 12.6 22.8 8.688 1.92-5.225-17.28-18.42-6.9-41.21 3.557-13.69 19.24-13.8 19.24-13.8s-14.99-3.748-6.282-16.76c8.707-13 38.85-24.06 49.3-14.22 4.822-1.471 11.1-7.469 17.04-11.26-3.253-4.842-6.592-9.231-9.211-11.38-7.641-6.261-20.73 10.48-29.25 13.08-10.45-9.85-40.59 1.21-49.3 14.21-8.705 13.02 6.282 16.76 6.282 16.76s-15.68 0.105-19.24 13.8c-10.39 22.79 8.821 35.98 6.9 41.21" fill="#22191e"/></g></g></g></g><g id="g684" transform="matrix(.21197 0 0 .21197 786.85 1219.7)"><g id="g692"><g id="g694" clip-path="url(#clipPath688)" opacity=".14999"><g id="g696" transform="translate(1564.1 2354.8)"><path id="path698" d="m0 0c1.097 1.396 2.459 5.558 1.599 9.586 1.917 0.211 3.998 0.1 6.266-0.414-3.215-4.026-5.618-7.988-7.865-9.172" fill="#22191e"/></g></g></g></g><g id="g700" transform="matrix(.21197 0 0 .21197 786.85 1219.7)"><g id="g708"><g id="g710" clip-path="url(#clipPath704)" opacity=".14999"><g id="g712" transform="translate(1597.1 2180)"><path id="path714" d="m0 0c7.217-6.412 19.1-7.074 30.49-5.018-1.21-2.158-3.1-3.905-5.9-5.052-6.55-2.69-14.48-4.79-22.18-5.38 3.872 4.86 1.539 10.39-2.408 15.45" fill="#22191e"/></g></g></g></g><g id="g716" transform="matrix(.21197 0 0 .21197 786.85 1219.7)"><g id="g724"><g id="g726" clip-path="url(#clipPath720)" opacity=".14999"><g id="g728" transform="translate(1883.1 2176.8)"><path id="path730" d="m0 0c5.895-11.24 16.89-18.99 22.21-22.26-4.271 2.038-12.48 4.478-20.98-0.975-5.841-3.746-5.556-10.13-3.644-15.81-3.411 4.49-6.082 9.889-6.567 16.06-0.783 10.07 2.518 19.04 8.981 22.99" fill="#22191e"/></g></g></g></g><g id="g732" transform="matrix(.21197 0 0 .21197 786.85 1219.7)"><g id="g740"><g id="g742" clip-path="url(#clipPath736)" opacity=".14999"><g id="g744" transform="translate(1905.8 2298.6)"><path id="path746" d="m0 0c-1.576-15.06 18.99-12.27 10.75-19.27-5.511-4.7-12.06-3.01-15.78-1.39-5.647 6.71-11.29 15.57-7.427 20.95 3.073 4.292 10.49 9.091 18.33 10.28-2.939-2.17-5.336-5.488-5.867-10.57" fill="#22191e"/></g></g></g></g><g id="g748" transform="matrix(.21197 0 0 .21197 786.85 1219.7)"><g id="g756"><g id="g758" clip-path="url(#clipPath752)" opacity=".14999"><g id="g760" transform="translate(1960.2 2075.9)"><path id="path762" d="m0 0c9.675 0.399 8.778-21.44 21.94-22.02 13.15-0.566 8.618 20.08 14.26 9.195 4.26-8.208 13.55-20.25 29.49-21.23-2.052-3.824-6.027-7.48-13.16-10.19-22.82-8.663-35.02 6.185-39.78 15.36-4.762 9.182-0.936-8.237-12.03-7.758-6.851 0.301-9.187 7.429-11.89 12.77 4.737 11.16 6.277 23.67 11.17 23.87" fill="#22191e"/></g></g></g></g><g id="g764" transform="matrix(.21197 0 0 .21197 786.85 1219.7)"><g id="g772"><g id="g774" clip-path="url(#clipPath768)" opacity=".14999"><g id="g776" transform="translate(1849.9 2116.4)"><path id="path778" d="m0 0c0.652 0.664 1.313 1.228 1.979 1.699 7.117-12.27 18.59-22.94 18.59-22.94s-9.497-27.19 8.807-32.68c18.3-5.496 21.09 26.27 25.42 22.92 4.326-3.364-19.1-40.58 15.07-49.52 4.674-1.222 8.639-1.361 12.03-0.704-4.024-8.099-10.57-14.49-23.51-11.11-28.83 7.539-9.066 38.94-12.72 41.78-3.661 2.828-6.012-23.98-21.45-19.34s-7.429 27.58-7.429 27.58-30.51 28.36-16.8 42.32" fill="#22191e"/></g></g></g></g><g id="g780" transform="matrix(.21197 0 0 .21197 786.85 1219.7)"><g id="g788"><g id="g790" clip-path="url(#clipPath784)" opacity=".14999"><g id="g792" transform="translate(1590.8 2676.6)"><path id="path794" d="m0 0s3.541 1.973 8.526 3.783c-1.466 0.127-2.969 0.111-4.475-0.012-2.279-2.323-4.051-3.771-4.051-3.771" fill="#22191e"/></g></g></g></g><g id="g796" transform="matrix(.21197 0 0 .21197 786.85 1219.7)"><g id="g804"><g id="g806" clip-path="url(#clipPath800)" opacity=".14999"><g id="g808" transform="translate(1564.9 2700.4)"><path id="path810" d="m0 0c4.359-1.575 6.919 4.235 10.92 8.771-3.59 1.849-6.515 2.319-8.97 1.919-1.652-4.553-7.029-8.854-1.95-10.69" fill="#22191e"/></g></g></g></g><g id="g812" transform="matrix(.21197 0 0 .21197 786.85 1219.7)"><g id="g820"><g id="g822" clip-path="url(#clipPath816)" opacity=".14999"><g id="g824" transform="translate(1549.5 2979.6)"><path id="path826" d="m0 0c-52.58 0.16-36.64 38.34-29.68 48-7.951 5.676-17.61-5.114-24.43 1.701-6.816 6.819-7.952 15.91-7.952 15.91s-7.065-6.107-14.57-9.772c1.195-2.831 3.057-6.112 5.934-8.991 6.818-6.817 16.48 3.975 24.43-1.704-6.958-9.659-22.9-47.84 29.68-48 8.396-0.03 14.87 1.038 19.82 2.906-1.046-0.035-2.116-0.059-3.23-0.056" fill="#22191e"/></g></g></g></g><g id="g828" transform="matrix(.21197 0 0 .21197 786.85 1219.7)"><g id="g836"><g id="g838" clip-path="url(#clipPath832)" opacity=".14999"><g id="g840" transform="translate(1522.5 2594.6)"><path id="path842" d="m0 0c3.246 0.553 6.203 1.984 8.608 3.533-4.578 1.668-9.292 5.817-13.57 14.13 1.068-4.51 3.339-10.86 4.958-17.66" fill="#22191e"/></g></g></g></g><g id="g844" transform="matrix(.21197 0 0 .21197 786.85 1219.7)"><g id="g852"><g id="g854" clip-path="url(#clipPath848)" opacity=".14999"><g id="g856" transform="translate(1600.9 2643.6)"><path id="path858" d="m0 0c-0.345-0.241-0.475-0.589-0.443-1.029 2.249 0.399 4.46 1.031 6.446 2.057-2.745-0.113-4.94-0.29-6.003-1.028" fill="#22191e"/></g></g></g></g><g id="g860" transform="matrix(.21197 0 0 .21197 786.85 1219.7)"><g id="g868"><g id="g870" clip-path="url(#clipPath864)" opacity=".14999"><g id="g872" transform="translate(1404 2697)"><path id="path874" d="m0 0c14.47-3.642 4.949 21.51 18.94 30.58-2.85 0.48-6.06 0.48-9.675-0.21-16.78-3.19-14.64-20.37-17.59-28.85 2.587-0.28 5.354-0.775 8.328-1.523" fill="#22191e"/></g></g></g></g><g id="g876" transform="matrix(.21197 0 0 .21197 786.85 1219.7)"><g id="g884"><g id="g886" clip-path="url(#clipPath880)" opacity=".14999"><g id="g888" transform="translate(1642.8 2780.2)"><path id="path890" d="m0 0c7.956-11.36 36.35-6.815 36.35-6.815s-12.49-15.91-7.465-31.81c2.743-8.68 11.82-5.859 19.5-1.501-1.258 0.898-2.264 2.303-2.912 4.358-5.028 15.91 7.464 31.81 7.464 31.81s-28.4-4.545-36.35 6.815c-5.79 8.285-7.207 33.36 9.56 42-33.79 2.36-33.42-34.46-26.14-44.87" fill="#22191e"/></g></g></g></g><g id="g892" transform="matrix(.21197 0 0 .21197 786.85 1219.7)"><g id="g900"><g id="g902" clip-path="url(#clipPath896)" opacity=".14999"><g id="g904" transform="translate(1509.6 2716.5)"><path id="path906" d="m0 0c-0.54 1.117-4.444 9.498-2.91 14.91-1.554 0.538-3.416 1.017-5.685 1.416-4.649 0.82-7.514 0.125-9.194-1.402 12.13-4.22 17.2-13.75 17.79-14.93" fill="#22191e"/></g></g></g></g><g id="g908" transform="matrix(.21197 0 0 .21197 786.85 1219.7)"><g id="g916"><g id="g918" clip-path="url(#clipPath912)" opacity=".14999"><g id="g920" transform="translate(1460.1 2709.5)"><path id="path922" d="m0 0s4.518 12.95 13.1 19.63c-1.1 0.31-2.26 0.59-3.474 0.8-6.953 1.23-12.6-2.43-16.84-7.18 5.362-6.029 7.214-13.25 7.214-13.25" fill="#22191e"/></g></g></g></g><g id="g924" transform="matrix(.21197 0 0 .21197 786.85 1219.7)"><g id="g932"><g id="g934" clip-path="url(#clipPath928)" opacity=".14999"><g id="g936" transform="translate(1534 2718.7)"><path id="path938" d="m0 0c2.419-1.771 4.369-1.345 6.447-0.282-0.952 0.263-1.974 0.523-3.093 0.768-1.562 0.345-2.959 0.409-4.229 0.287 0.256-0.27 0.538-0.528 0.875-0.773" fill="#22191e"/></g></g></g></g><g id="g940" transform="matrix(.21197 0 0 .21197 786.85 1219.7)"><g id="g948"><g id="g950" clip-path="url(#clipPath944)" opacity=".14999"><g id="g952" transform="translate(1449.8 2142.7)"><path id="path954" d="m0 0c-2.442-0.189-5.237 0.495-8.249 1.457 0.294 0.949 0.741 1.892 1.379 2.81 3.854 5.553 9.854 3.109 14.42-0.153-1.008-1.798-3.11-3.768-7.551-4.114" fill="#22191e"/></g></g></g></g><g id="g956" transform="matrix(.21197 0 0 .21197 786.85 1219.7)"><g id="g964"><g id="g966" clip-path="url(#clipPath960)" opacity=".14999"><g id="g968" transform="translate(1473.8 2195.3)"><path id="path970" d="m0 0s-1.216 1.392-3.138 3.146c0.353 0.176 0.714 0.347 1.086 0.519 0.761-2.099 2.052-3.665 2.052-3.665" fill="#22191e"/></g></g></g></g><g id="g972" transform="matrix(.21197 0 0 .21197 786.85 1219.7)"><g id="g980"><g id="g982" clip-path="url(#clipPath976)" opacity=".14999"><g id="g984" transform="translate(1935 2733.6)"><path id="path986" d="m0 0s-6.199 4.327-16.75-2.752c-10.55-7.084 6.428-30.25 6.428-30.25s-11.08 12.08-33.04 9.362c-0.912-0.113-1.771-0.273-2.604-0.451 0.498 0.691 1.115 1.316 1.903 1.846 10.55 7.079 16.75 2.752 16.75 2.752s-20.96 38.41 1.614 46.14c6.932 2.373 12.48 1.624 17.05-0.645 1.325-12.57 8.65-26 8.65-26" fill="#22191e"/></g></g></g></g><g id="g988" transform="matrix(.21197 0 0 .21197 786.85 1219.7)"><g id="g996"><g id="g998" clip-path="url(#clipPath992)" opacity=".14999"><g id="g1000" transform="translate(1871.2 2684.7)"><path id="path1002" d="m0 0s-0.51 2.792-1.891 6.097c0.795 0.021 1.577 0.027 2.336 0.01-0.619-3.523-0.445-6.107-0.445-6.107" fill="#22191e"/></g></g></g></g><g id="g1004" transform="matrix(.21197 0 0 .21197 786.85 1219.7)"><g id="g1012"><g id="g1014" clip-path="url(#clipPath1008)" opacity=".14999"><g id="g1016" transform="translate(1939.1 2557.9)"><path id="path1018" d="m0 0c2.538 3.874 4.085 8.867 4.248 15.22 0.739 3.639 9.756 3.567 7.692-2.402-0.86-2.48-6.669-7.204-11.94-12.82" fill="#22191e"/></g></g></g></g><g id="g1020" transform="matrix(.21197 0 0 .21197 786.85 1219.7)"><g id="g1028"><g id="g1030" clip-path="url(#clipPath1024)" opacity=".14999"><g id="g1032" transform="translate(1999.9 2786.2)"><path id="path1034" d="m0 0c16.88 1.397 6.246-7.617 1.73-9.159-4.515-1.539-11.72 6.112-22.37 1.355-5.787-2.588-7.5-7.404-7.506-11.72-16.38 0.305-25.92 50.04-9.075 57.1 8.226 3.45 14.33 1.373 18.47-1.716 0.16-16.72 8.12-36.74 18.75-35.86" fill="#22191e"/></g></g></g></g><g id="g1036" transform="matrix(.21197 0 0 .21197 786.85 1219.7)"><g id="g1044"><g id="g1046" clip-path="url(#clipPath1040)" opacity=".14999"><g id="g1048" transform="translate(1688.6 2469.2)"><path id="path1050" d="m0 0s-14.95 18.4-27.64 8.862c-2.381 11.86-1.694 25.42 13.59 26.1 3.039 0.134 5.791-0.107 8.311-0.612-4.075-12.9 5.739-34.35 5.739-34.35" fill="#22191e"/></g></g></g></g><g id="g1052" transform="matrix(.21197 0 0 .21197 786.85 1219.7)"><g id="g1060"><g id="g1062" clip-path="url(#clipPath1056)" opacity=".14999"><g id="g1064" transform="translate(1560.1 2397.9)"><path id="path1066" d="m0 0c-7.015 1.002-6.132 11.72-10.7 21.39 0.111 0.058 0.209 0.127 0.324 0.181 6.457 3.077 12.14 1.336 16.18-1.135-0.911-9.62 3.025-21.7-5.8-20.44" fill="#22191e"/></g></g></g></g><g id="g1068" transform="matrix(.21197 0 0 .21197 786.85 1219.7)"><g id="g1076"><g id="g1078" clip-path="url(#clipPath1072)" opacity=".14999"><g id="g1080" transform="translate(1793.3 2243.5)"><path id="path1082" d="m0 0s-1.006-8.933-7.625-9.711c-1.057 5.353-0.37 8.924 1.844 10.67 4.636 3.649 10.4-1.221 18.48-1.827 8.078-0.611 9.239 9.744 9.239 9.744s-0.149-7.099 2.195-12.19c-1.19 0.15-1.877 0.27-1.877 0.27s-0.283-11.57-11.48-14c-11.2-2.45-10.78 17.04-10.78 17.04" fill="#22191e"/></g></g></g></g><g id="g1084" transform="matrix(.21197 0 0 .21197 786.85 1219.7)"><g id="g1092"><g id="g1094" clip-path="url(#clipPath1088)" opacity=".14999"><g id="g1096" transform="translate(1650.3 2451.5)"><path id="path1098" d="m0 0c0.119 7.123-1.253 14.46-4.311 20.34 3.02 0.248 5.994-0.573 8.707-1.88-5.694-12.34 3.718-23.33-4.396-18.46" fill="#22191e"/></g></g></g></g><g id="g1100" transform="matrix(.21197 0 0 .21197 786.85 1219.7)"><g id="g1108"><g id="g1110" clip-path="url(#clipPath1104)" opacity=".14999"><g id="g1112" transform="translate(1615.5 2435.1)"><path id="path1114" d="m0 0c-4.831-1.827-8.484 8.529-16.4 0-7.918-8.526-4.872-13.39-4.872-13.39s-4.662 6.114-11.77 7.869c4.548 0.698 7.496-4.713 11.1-3.35-35.28 35.77 3.997 47.64 3.997 47.64 3.276 0.909 6.259 1.243 8.975 1.106-7.115-7.14-10.94-19.71 8.965-39.88" fill="#22191e"/></g></g></g></g><g id="g1116" transform="matrix(.21197 0 0 .21197 786.85 1219.7)"><g id="g1124"><g id="g1126" clip-path="url(#clipPath1120)" opacity=".14999"><g id="g1128" transform="translate(1797.9 2338.9)"><path id="path1130" d="m0 0s6.832-1.19 14.8-0.836c-3.82-5.615-11.27-7.868-18.47-8.617 3.535 4.176 3.668 9.453 3.668 9.453" fill="#22191e"/></g></g></g></g><g id="g1132" transform="matrix(.21197 0 0 .21197 786.85 1219.7)"><g id="g1140"><g id="g1142" clip-path="url(#clipPath1136)" opacity=".14999"><g id="g1144" transform="translate(1597 2287)"><path id="path1146" d="m0 0c-0.114-0.093-0.229-0.186-0.35-0.261-1.857-1.161-3.27-0.723-4.511 0.357 1.59-0.213 3.245-0.276 4.861-0.096" fill="#22191e"/></g></g></g></g><g id="g1148" transform="matrix(.21197 0 0 .21197 786.85 1219.7)"><g id="g1156"><g id="g1158" clip-path="url(#clipPath1152)" opacity=".14999"><g id="g1160" transform="translate(1489.4 2344.2)"><path id="path1162" d="m0 0c-11.93 1.46-8.202 53.26 23.86 53.69-15.2-14.37-15.31-45.39-6.12-46.51 6.18-0.493 0-1.967 0-1.967s-9.086-16.75 6.674-22.16c15.76-5.418 43.2 3.938 43.76 0 0.564-3.942-7.811-5.912-3.87-20.69 3.939-14.78 21.18-7.88 21.18-7.88s-2.308-6.404 7.955-10.83c0 0 1.108-0.556 2.812-1.159-0.083-1.724-0.72-3.838-2.904-6.02-5.912-5.911-17.65 0-17.65 0-10.26 4.429-7.955 10.83-7.955 10.83s-17.24-6.897-21.18 7.879c-3.939 14.78 4.435 16.75 3.87 20.69-0.563 3.939-28-5.418-43.76 0-15.76 5.41-6.67 22.16-6.67 22.16s6.179 1.476 0 1.97" fill="#22191e"/></g></g></g></g><g id="g1164" transform="matrix(.21197 0 0 .21197 786.85 1219.7)"><g id="g1172"><g id="g1174" clip-path="url(#clipPath1168)" opacity=".14999"><g id="g1176" transform="translate(1618.6 2295.6)"><path id="path1178" d="m0 0c4.875 3.048 4.269 21.31 15.84 15.83 11.56-5.48-15.84-18.06-5.49-24.55 10.35-6.492 21.92-5.884 21.92-5.884s-11.57-15.22 1.218-17.05c3.834-0.545 8.987-0.871 14.22-0.636-4.187-9.584-25.38-9.776-36.16-8.237-12.78 1.826-1.218 17.05-1.218 17.05s-11.57-0.61-21.92 5.882c-7.133 4.477 3.663 11.84 7.276 17.79 1.198-0.946 2.558-1.277 4.314-0.18" fill="#22191e"/></g></g></g></g><g id="g1180" transform="matrix(.21197 0 0 .21197 786.85 1219.7)"><g id="g1188"><g id="g1190" clip-path="url(#clipPath1184)" opacity=".14999"><g id="g1192" transform="translate(1688.6 2278.6)"><path id="path1194" d="m0 0c-3.673 15.83 6.678 4.874 6.678 4.874s-1.218-11.57 7.913-8.529c9.136 3.046 9.742 16.44 9.742 16.44s4.624-16.44 16.32-17.66c1.344-0.14 2.881-0.165 4.53-0.074-5.944-6.94-19.09-9.567-26.47-8.801-11.69 1.23-16.31 17.67-16.31 17.67s-0.238-5.246-2.657-9.92c0.655 1.706 0.799 3.691 0.261 6.01" fill="#22191e"/></g></g></g></g><g id="g1196" transform="matrix(.21197 0 0 .21197 786.85 1219.7)"><g id="g1204"><g id="g1206" clip-path="url(#clipPath1200)" opacity=".14999"><g id="g1208" transform="translate(1685.9 2269)"><path id="path1210" d="m0 0c-1.218-1.275-2.717-2.324-4.573-2.945-0.394-0.131-0.763-0.226-1.119-0.305 2.247 0.826 4.198 1.895 5.692 3.25" fill="#22191e"/></g></g></g></g><g id="g1212" transform="matrix(.21197 0 0 .21197 786.85 1219.7)"><g id="g1220"><g id="g1222" clip-path="url(#clipPath1216)" opacity=".14999"><g id="g1224" transform="translate(1382.3 2472.1)"><path id="path1226" d="m0 0c-1.446 4.183 4.874 4.232 5.392 1.681 0.114-4.449 1.197-7.948 2.975-10.66-3.693 3.933-7.767 7.242-8.367 8.981" fill="#22191e"/></g></g></g></g><g id="g1228" transform="matrix(.21197 0 0 .21197 786.85 1219.7)"><g id="g1236"><g id="g1238" clip-path="url(#clipPath1232)" opacity=".14999"><g id="g1240" transform="translate(1366.3 2603.8)"><path id="path1242" d="m0 0c0.808 1.031 1.797 3.898 1.475 6.871 0.359-0.104 0.716-0.203 1.087-0.329 0.862-0.295 1.617-0.665 2.304-1.078-1.877-2.513-3.411-4.698-4.866-5.464" fill="#22191e"/></g></g></g></g><g id="g1244" transform="matrix(.21197 0 0 .21197 786.85 1219.7)"><g id="g1252"><g id="g1254" clip-path="url(#clipPath1248)" opacity=".14999"><g id="g1256" transform="translate(1393.3 2460.1)"><path id="path1258" d="m0 0c4.619-4.105 11.57-5.353 18.84-4.899-1-1.606-2.49-2.914-4.63-3.792-3.59-1.469-7.683-2.729-11.89-3.559 2.692 3.892 0.798 8.247-2.322 12.25" fill="#22191e"/></g></g></g></g><g id="g1260" transform="matrix(.21197 0 0 .21197 786.85 1219.7)"><g id="g1268"><g id="g1270" clip-path="url(#clipPath1264)" opacity=".14999"><g id="g1272" transform="translate(1347.9 2435.9)"><path id="path1274" d="m0 0s-6.627-21.5 3.343-23.67c2.177-0.473 5.605-0.479 9.49-0.062-6.7-6.508-26.21-9.723-33.12-8.216-4.851 1.057-5.769 6.691-5.436 12.2 15.35-1.69 25.73 19.75 25.73 19.75" fill="#22191e"/></g></g></g></g><g id="g1276" transform="matrix(.21197 0 0 .21197 1121.8 1689.7)"><path id="path1278" d="m0 0v0.269c0.045-0.089 0.058-0.179 0-0.269" fill="#22191e"/></g><g id="g1280" transform="matrix(.21197 0 0 .21197 786.85 1219.7)"><g id="g1288"><g id="g1290" clip-path="url(#clipPath1284)" opacity=".3"><g id="g1292" transform="translate(1585.6 2599.7)"><path id="path1294" d="m0 0c0.831-0.274 1.726-0.546 2.675-0.813-9.877 1.497-18.18 3.151-23.74 4.997-3.743 1.244-8.242 3.136-13.25 5.493l7.169 2.818-0.011 0.01c10.63-5.655 20.18-10.2 27.15-12.51" fill="#22191e"/></g></g></g></g><g id="g1296" transform="matrix(.21197 0 0 .21197 1123.1 1774.3)"><path id="path1298" d="m0 0c1.515-0.171 3.103-0.342 4.755-0.518" fill="#22191e"/></g><g id="g1300" transform="matrix(.21197 0 0 .21197 786.85 1219.7)"><g id="g1308"><g id="g1310" clip-path="url(#clipPath1304)" opacity=".3"><g id="g1312" transform="translate(1518 2629.8)"><path id="path1314" d="m0 0c-31.76 18.58-63.69 39.71-63.69 39.71l15.07 0.096s3.211-1.613 8.502-4.264l-2.501-0.016s31.92-21.13 63.68-39.71c2.658-1.554 5.312-3.088 7.949-4.594l-13.85-8.106-38.98-15.33-4.7 6.281 36.46 21.34c-2.628 1.501-5.283 3.034-7.94 4.59" fill="#22191e"/></g></g></g></g><g id="g1316" transform="matrix(.21197 0 0 .21197 786.85 1219.7)"><g id="g1324"><g id="g1326" clip-path="url(#clipPath1320)" opacity=".3"><g id="g1328" transform="translate(1404.3 2126.8)"><path id="path1330" d="m0 0c1.912-1.173 22.62-34.07 38.19-59.08l-3.72-23.82s-38.6 62.71-51.52 81.72c9.869 1.062 16.4 1.579 17.05 1.18" fill="#22191e"/></g></g></g></g><g id="g1332" transform="matrix(.21197 0 0 .21197 1126.3 1688.8)"><path id="path1334" d="m0 0 2e-3 0.269c0.043-0.089 0.056-0.179-2e-3 -0.269" fill="#22191e"/></g><g id="g1336" transform="matrix(.21197 0 0 .21197 1167.9 1645.9)"><path id="path1338" d="m0 0s24.07 30.47 7.439 39.99c-16.63 9.522-26.84-20-26.84-20s8.881 16.82-2.876 20.63-19.96-4.44-19.96-4.44 20.28 14.6 17.57 31.74c-2.722 17.14-19.59 27.93-37.98 8.893 0 0-7.492-6.989-15.66-3.176-8.178 3.811 9.538 5.077 5.448 15.87-4.082 10.79-19.01 7.617-19.01 7.617s18.34 22.21 9.484 29.2c-8.857 6.981-39.51 12.06-39.51-15.87-0.68-1.907-8.852-15.87-12.26-3.808-3.409 12.06 15.3 30.9-21.11 47.61-40.22 18.45-61.97-13.33-61.97-13.33s6.814 19.04-8.851 20.31c-15.66 1.267-19.4-18.82-19.76-20.48-0.408-1.868-6.797 13.5-23.82 9.683-17.03-3.81-17.03-15.23-17.03-15.23s2.302 7.695-4.767 17.77c-5.981 8.533-17.42 17.86-38.73 10.42-37.21-12.99-0.074-41.52-0.074-41.52 2.039-9.525-2.048-6.983-10.9-10.8-8.853-3.811-2.039-12.06-2.039-12.06s-14.99 17.14-22.48 6.347c-7.486-10.79 8.853-24.3 8.853-24.3s-29.34 29.36-41.54 7.154c-14.3-26.02 40.18-33.01 40.18-33.01s0-6.343-8.171-6.983c-8.176-0.634-20.43 8.892-31.33 4.443-10.9-4.443-8.167-12.7-8.167-12.7s3.399 26.66-25.2 23.49c-28.6-3.178-38.17-33.01-23.17-39.99 15-6.984 12.95-10.16 6.147-10.8-6.806-0.636-14.3 10.16-26.56 4.446-12.1-5.72-5.3-17.15-5.3-17.15s-13.62 4.446-17.02 0c-3.4-4.439 4.086-10.16 4.086-10.16s-42.22 4.449-38.14-15.86c4.094-20.32 44.96-27.3 49.72-10.16 4.766 17.14 8.855 16.51 10.22 13.33 1.364-3.169-4.09-5.712 5.448-10.79 9.534-5.081 14.98 10.79 16.34 5.076 1.361-5.713-28.6-17.14-16.34-28.56s25.2 0 25.2 0-14.98-12.7-2.042-18.41 19.74 0 19.74 0 0.683-25.94 23.84-25.35c23.16 0.586 9.538 36.78 6.809 35.5-2.726-1.263 12.26-14.6 18.39-8.884 6.131 5.719 6.81 14.6 6.81 14.6s-8.172-13.33 6.131-17.14c14.3-3.809 21.79 4.439 21.79 4.439s-13.61-22.77 0.685-27.25c14.3-4.49 30.64 14.55 34.73 8.202 4.086-6.344 0.704-17.77 8.86-22.85 8.155-5.083 28.59-0.639 26.55 10.79-2.043 11.43-10.22 19.68-10.22 19.68s19.45-13.65 36.85-2.653c12.42 7.844 9.575 5.372 21.03 17.25 0 0-7.482-24.12 13.62-23.49 21.1 0.635 39.49 15.24 29.28 36.83-0.683 5.702 4.081-6.355 13.62-1.906 9.542 4.443 10.9 19.04 10.21 16.5-0.672-2.54-6.126-20.31 18.39-23.48 24.52-3.178 33.37 12.06 36.09 20.94 2.716 8.888 2.716-6.983 13.62-4.448 10.9 2.54 6.134 18.42 14.3 19.68 8.168 1.269 14.21-34.91 41.15-22.85s0.506 35.58 3.51 38.74c3.008 3.158 11.18-19.7 25.48-12.71 14.49 7.01 1.55 25.42 1.55 25.42" fill="#457840"/></g><g id="g1340" transform="matrix(.21197 0 0 .21197 786.85 1219.7)"><g id="g1348"><g id="g1350" clip-path="url(#clipPath1344)" opacity=".14999"><g id="g1352" transform="translate(1541.8 2150.6)"><path id="path1354" d="m0 0s-8.059-26.15 4.064-28.79c4.089-0.892 11.81-0.422 19.6 1.205-7.338-8.435-32.34-12.66-41.02-10.77-5.931 1.295-7.028 8.212-6.606 14.94 14.57 4 23.97 23.41 23.97 23.41" fill="#22191e"/></g></g></g></g><g id="g1356" transform="matrix(.21197 0 0 .21197 786.85 1219.7)"><g id="g1364"><g id="g1366" clip-path="url(#clipPath1360)" opacity=".14999"><g id="g1368" transform="translate(1325.1 2040)"><path id="path1370" d="m0 0s-3.856 2.945-4.505 6.146c3.289 0.995 6.037 2.644 7.861 5.009 4.239-0.332 8.612-1.76 8.612-1.76s-5.722 9.623 3.604 15.1c-0.189-1.842 0.568-3.936 5.978-6.814 6.443-3.433 11.08 2.356 13.93 5.169 0.988-0.487 1.938-0.916 2.865-1.231-2.56-6.27-28.62-17.29-16.79-28.31 12.28-11.45 25.23-0.77 26.09-0.04-0.566-0.489-6.098-5.385-7.301-10.42-7e-3 0.039-9e-3 0.081-0.019 0.117-1.257 5.285-6.299-9.394-15.12-4.696-8.823 4.696-3.778 7.05-5.039 9.981-1.26 2.935-5.042 3.524-9.45-12.33-4.403-15.85-42.2-9.4-45.99 9.4-3.78 18.78 35.28 14.67 35.28 14.67" fill="#22191e"/></g></g></g></g><g id="g1372" transform="matrix(.21197 0 0 .21197 786.85 1219.7)"><g id="g1380"><g id="g1382" clip-path="url(#clipPath1376)" opacity=".14999"><g id="g1384" transform="translate(1369.5 2030.9)"><path id="path1386" d="m0 0c-0.234-2.309 0.806-4.572 4.461-6.189 11.06-4.882 16.88 0 16.88 0s0.584-22.18 20.38-21.67c14.67 0.372 12.08 17.46 8.801 25.84 3.684-3.06 9.585-6.028 12.74-3.085 1.753 1.634 2.982 3.57 3.845 5.424 0.098-2.991 1.694-6.122 7.219-7.592 12.23-3.255 18.63 3.798 18.63 3.798s-11.64-19.46 0.587-23.3c12.22-3.841 26.2 12.44 29.69 7.011 3.494-5.424 0.602-15.19 7.574-19.53 6.973-4.345 24.44-0.549 22.7 9.223-1.749 9.769-8.735 16.83-8.735 16.83s16.63-11.67 31.5-2.267c10.62 6.702 8.187 4.59 17.98 14.75 0 0-6.398-20.62 11.64-20.08 0.614 0.02 1.222 0.055 1.829 0.1 6.803-15.93-6.965-26.65-22.74-27.12-16.09-0.484-10.39 17.91-10.39 17.91-8.737-9.055-6.569-7.17-16.04-13.15-13.27-8.383-28.1 2.024-28.1 2.024s6.232-6.294 7.791-15.01c1.555-8.711-14.03-12.1-20.24-8.224-6.219 3.879-3.641 12.58-6.757 17.42-3.116 4.841-15.58-9.678-26.48-6.256-10.9 3.419-0.52 20.78-0.52 20.78s-5.709-6.291-16.61-3.385c-4.934 1.313-6.357 4.109-6.438 6.782-0.771-1.659-1.862-3.39-3.431-4.852-2.814-2.625-8.077 0.023-11.36 2.752 2.922-7.472 5.24-22.71-7.847-23.04-17.66-0.448-18.18 19.33-18.18 19.33s-5.189-4.354-15.05 0c-9.549 4.212 0.847 13.42 1.522 14.01-0.628-0.541-10.15-8.392-19.18 0.027-8.71 8.07 10.28 16.14 12.28 20.75" fill="#22191e"/></g></g></g></g><g id="g1388" transform="matrix(.21197 0 0 .21197 786.85 1219.7)"><g id="g1396"><g id="g1398" clip-path="url(#clipPath1392)" opacity=".14999"><g id="g1400" transform="translate(1635.8 2002.2)"><path id="path1402" d="m0 0c-1.465-2.464-3.534-4.806-6.415-6.147-4.034-1.883-7.141-0.572-9.27 0.905 5.762 0.775 11.17 2.567 15.68 5.242" fill="#22191e"/></g></g></g></g><g id="g1404" transform="matrix(.21197 0 0 .21197 786.85 1219.7)"><g id="g1412"><g id="g1414" clip-path="url(#clipPath1408)" opacity=".3"><g id="g1416" transform="translate(1382.1 2272.3)"><path id="path1418" d="M0,0,0.627-8.587-62.8,31.53-2.006,3.993,0,1.915" fill="#22191e"/></g></g></g></g><g id="g1420" transform="matrix(.21197 0 0 .21197 1103.8 1785.1)"><path id="path1422" d="m0 0s14.6 9.486 6.185 19.53c-8.417 10.04-24.04-6.696-24.04-6.696s-3.007 10.32-12.94 9.904c-9.93-0.41-11.05-13.8-5.47-22.73 5.579-8.925-5.022-2.231-10.6 0-5.58 2.233-16.74-0.556-13.95-14.51s4.463-39.61 17.3-28.46c12.83 11.16 16.76 15.06 21.21 10.6 4.453-4.462 10.52-23.33 18.64-13.34 8.127 9.994 7.57 3.298 7.57 3.298s-30.71-35.11-22.34-30.05 23.73-10.3 23.73-10.3 146.5-4.512 145.9 13.34c-0.6 17.86-116 58.46-135.6 55.85-19.53-2.61-19.86 9.975-15.62 13.57" fill="#457840"/></g></g></svg>
