<?xml version="1.0" encoding="utf-8"?>
<!-- Generator: Adobe Illustrator 22.1.0, SVG Export Plug-In . SVG Version: 6.00 Build 0)  -->
<svg version="1.1" id="Calque_1" xmlns="http://www.w3.org/2000/svg" xmlns:xlink="http://www.w3.org/1999/xlink" x="0px" y="0px"
	 viewBox="0 0 658.7 366.9" style="enable-background:new 0 0 658.7 366.9;" xml:space="preserve">
<style type="text/css">
	.st0{fill:#E9E8E8;}
	.st1{fill:#9A9999;}
	.st2{fill:#13A1B8;}
</style>
<polygon class="st0" points="38,30.3 334,13.1 334,328.9 6.9,343.2 "/>
<path class="st1" d="M199.3,254.1c-20.2-2-36.5-9.5-48.9-22.6c-13.1-14.4-20.1-33.5-20.8-57.5c-0.1-2.3,1.8-4.2,4.1-4.2h0.5h2.3h4.1
	h164.3c2.3,0,4.2-1.9,4.1-4.2c-0.9-26.2-10.3-47.7-28.2-64.5c-18.6-17.6-42.1-26.4-70.6-26.4c-15.7,0-29.9,2.9-42.6,8.6
	c-1.5,0.7-2.5,2.1-2.5,3.8v11c0,3,3.2,5.1,5.9,3.7c11.1-5.6,24.1-8.4,39.2-8.4c18.9,0,35.6,5.3,50.1,15.8
	c13.7,9.7,22.4,22.3,26.3,37.6c0.7,2.6-1.3,5.1-4,5.1H165.1h-28.6h-1.4h-2.8H113H93.6c-2.3,0-4.1,1.8-4.1,4.1v9.9
	c0,2.3,1.8,4.1,4.1,4.1h13.2c2.3,0,4.1,1.9,4.1,4.2c0,0,0,0,0,0c0,28.5,9.4,52.1,28.3,71c15.1,15.3,33.6,24.5,55.4,27.3
	c2.4,0.3,4.6-1.6,4.6-4.1v-14.2L199.3,254.1L199.3,254.1z"/>
<path class="st1" d="M545.9,79.9h9.6c2.6,0,4.7,2.1,4.7,4.7v96.3c0,2.6-2.1,4.7-4.7,4.7h-9.6c-2.6,0-4.7-2.1-4.7-4.7V84.6
	C541.2,82,543.3,79.9,545.9,79.9z"/>
<path class="st1" d="M369.6,185.6c1.3,0,2.3-1,2.3-2.3v-28.2c0-18.2,4.8-32.6,14.4-43.1c9.3-10.5,22.9-15.8,40.8-15.8
	c36.5,0,54.7,20.3,54.7,60.8v26.4c0,1.3,1,2.3,2.3,2.3h14.4c1.3,0,2.3-1,2.3-2.3v-28.2c0-24.4-6.3-43.5-19-57.1
	s-30.9-20.4-54.7-20.4c-24.2,0-41.3,6.3-51.1,19c-1.3,1.7-4.1,0.8-4.1-1.4V82.2c0-1.3-1-2.3-2.3-2.3h-14.4c-1.3,0-2.3,1-2.3,2.3
	v101.1c0,1.3,1,2.3,2.3,2.3H369.6z"/>
<g>
	<path class="st2" d="M270.9,249.3c2.9,0,5.2,0.8,6.8,2.4c1.6,1.6,2.4,3.8,2.4,6.6c0,0.7-0.1,1.4-0.2,2.2c-0.1,0.7-0.3,1.4-0.5,1.9
		c-1.1-0.2-2.4-0.3-3.8-0.5c-1.4-0.1-3.1-0.2-5-0.2c-3.8,0-7.6,0.3-11.5,1s-7.5,1.2-11.1,1.6c-2,4.7-3.9,9.2-5.5,13.5
		c-1.7,4.4-3.1,8.3-4.3,11.9s-2.1,6.7-2.8,9.4c-0.7,2.6-1,4.6-1.1,5.9c7.1-1.6,14.3-3,21.5-4.1c7.2-1.1,14.9-1.7,22.8-1.7
		c1,1.5,1.8,3,2.4,4.7c0.7,1.7,1,3.5,1,5.5c0,0.5,0,1.1,0,1.7s-0.1,1.2-0.3,1.8c-2.5,0-5,0-7.8,0c-2.7,0-6.3,0-10.7,0
		c-2.9,0-5.6,0-8.2,0s-5.2,0.1-7.8,0.4s-5.4,0.7-8.4,1.1c-2.9,0.5-6.3,1-9.9,1.7c-4-1.6-7.9-5.4-11.7-11.6c1.5-3.2,3.6-8,6.3-14.4
		c2.7-6.5,6.1-15.1,10.2-25.9c-4-1.2-6.5-3.4-7.8-6.6c0.4-0.4,1.7-1,3.8-1.6s4.7-1.3,7.8-2c1.3-3.4,2.4-6.4,3.4-9
		c0.9-2.5,1.7-4.9,2.4-7.2c0.7-2.2,1.3-4.4,1.9-6.6c0.6-2.1,1.1-4.5,1.6-7c-3.1,0-5.5-0.8-7.2-2.3c-1.8-1.6-2.6-3.6-2.6-6.1
		c0-0.7,0.1-1.6,0.3-2.5c0.2-1,0.5-1.8,0.7-2.5c1.8,0.1,3.4,0.2,5.1,0.2c1.6,0,3.8,0,6.4,0c5.5,0,10.7,0,15.5,0s9.2-0.2,13.1-0.7
		c3.9-0.4,7.3-0.9,10.1-1.3c2.8-0.4,5-0.6,6.5-0.6c2,0,3.8,1.1,5.4,3.2s2.8,5.1,3.6,9c-2.7-0.4-4.9-0.5-6.6-0.5s-3.2,0-4.5,0
		c-4.8,0-9.2,0.2-13.2,0.7s-7.8,1-11.5,1.5c-0.5,0.8-1.1,1.8-1.8,3s-1.5,2.9-2.6,5.1c-1.1,2.2-2.3,4.9-3.9,8.3
		c-1.5,3.3-3.4,7.5-5.6,12.5c3.3-0.5,6.5-0.9,9.4-1.3C266.4,249.5,268.9,249.3,270.9,249.3z"/>
	<path class="st2" d="M316.1,241.6c2.3,0.7,4.4,2.3,6.5,4.7c2,2.4,3.5,5.1,4.5,8c-1,2.4-2.5,5.2-4.5,8.6c-2,3.3-4,6.7-6.1,10.2
		c-2,3.5-3.8,6.8-5.5,9.9c-1.6,3.1-2.6,5.7-2.8,7.7c1.4-1.5,3-3.2,4.7-5.2s3.4-4,5-5.9c1.6-2,3.1-3.8,4.5-5.4s2.5-2.8,3.3-3.6
		c1.7-1.8,3.6-3.8,5.9-6.1c2.3-2.3,4.7-4.5,7.2-6.6s5-3.8,7.6-5.3c2.5-1.4,4.9-2.2,7-2.2c2.3,0,4.2,0.8,5.7,2.3s2.7,3.1,3.6,4.8
		c0,0.2-0.3,0.4-1,0.7c-0.7,0.3-1.6,1.2-2.8,2.6c-1.2,1.6-2.6,3.8-4.1,6.5c-1.5,2.8-3,5.7-4.5,9c-1.4,3.2-2.7,6.5-3.6,9.8
		c-1,3.3-1.4,6.4-1.4,9.1c0,2.2,0.3,3.6,0.9,4.2s1.4,0.9,2.4,0.9s2-0.2,3-0.7c1.1-0.4,1.9-0.7,2.5-0.7c0.3,0.2,0.6,0.5,0.9,1.1
		c0.2,0.6,0.3,1.1,0.3,1.5c-0.7,0.6-1.5,1.2-2.5,1.8c-1,0.6-2,1.2-3,1.7c-1.1,0.5-2.1,1-3.1,1.3s-1.9,0.5-2.7,0.5
		c-2.5,0-4.6-0.4-6.3-1.1c-1.6-0.7-2.9-1.7-3.8-3c-0.9-1.2-1.6-2.7-1.9-4.4c-0.4-1.7-0.5-3.5-0.5-5.5c0-1.1,0.1-2.2,0.3-3.6
		c0.2-1.3,0.5-2.9,1.1-4.7c0.5-1.8,1.3-4,2.2-6.5c1-2.5,2.2-5.5,3.7-9c-0.2,0-1.4,0.6-3.6,1.8c-2.2,1.2-4.6,3.1-7.1,5.7
		c-4.1,3.9-7.8,7.9-11.1,11.7c-3.3,3.9-6.6,8.2-10.1,12.9c-1.9,2.7-3.6,5-5.1,6.9c-1.4,1.9-2.7,3.1-3.8,3.8
		c-1.8-1.1-3.2-2.5-4.1-4.4s-1.5-3.8-2-5.9c0-1.7,0.2-3.8,0.7-6.3s1.1-5.4,2-8.5c0.8-3.1,1.9-6.4,3.1-9.8s2.6-6.8,4.1-10.3
		c3.3-7.7,6.4-13.8,9.2-18.2C313.6,244.3,315.4,241.9,316.1,241.6z"/>
	<path class="st2" d="M366.6,282.3c0-5,1-9.9,3.1-14.5c2.1-4.7,4.8-8.9,8.2-12.5c3.4-3.6,7.2-6.6,11.6-8.8s8.8-3.4,13.5-3.4
		c4.6,0,8.1,1.1,10.5,3.4c2.5,2.3,3.7,5.5,3.7,9.7c0,2-0.3,4-0.9,5.9s-1.3,3.6-2.2,5.1c-0.9,1.5-2,2.7-3.2,3.6s-2.5,1.4-3.7,1.4
		c-1.1,0-2.1-0.3-3.2-1s-2-1.5-2.7-2.6c5.9-5.4,8.8-10.2,8.8-14.6c0-2.5-1-3.8-3-3.8c-1.8,0-4,0.8-6.6,2.5s-5.2,3.9-7.6,6.6
		c-3.8,4.2-6.6,8.9-8.6,14s-3,10.5-3,16.1c0,7.1,1.6,11.4,4.7,12.8c1.3-0.2,2.9-0.6,4.6-1.2c1.8-0.6,3.6-1.4,5.7-2.4
		c2-1,4.1-2.2,6.3-3.5c2.1-1.3,4.2-2.7,6.3-4.2c0.3,0.3,0.7,0.7,0.9,1.2s0.4,1,0.4,1.4c-1.5,1.8-3.2,3.6-5.1,5.4s-4,3.4-6.1,4.8
		s-4.1,2.7-6.1,3.7s-3.7,1.6-5.2,1.9c-2.9-0.3-5.6-1.2-8.2-2.7c-2.5-1.5-4.8-3.5-6.6-6c-1.9-2.5-3.4-5.3-4.5-8.4
		C367.2,289,366.6,285.7,366.6,282.3z"/>
	<path class="st2" d="M421,303.2c0-3.1,0.3-6.7,0.9-10.9c0.6-4.2,1.5-8.6,2.7-13.4c1.2-4.7,2.6-9.7,4.2-14.9
		c1.6-5.2,3.4-10.4,5.5-15.5c1.8-4.7,3.8-9.3,6.1-14.1c2.3-4.7,4.8-9.4,7.6-14c2.7-4.6,5.5-8.9,8.5-13c2.9-4.1,5.9-7.9,8.9-11.3
		c1.4,0,2.9,0.2,4.5,0.5c1.6,0.4,3.2,0.8,4.7,1.4c1.5,0.6,2.9,1.3,4.2,2c1.3,0.8,2.3,1.6,3.1,2.4c-6.6,6.8-12.5,13.6-17.8,20.5
		s-9.4,13.4-12.5,19.4c-1.7,3.3-3.2,6.5-4.5,9.3c-1.4,2.9-2.6,5.8-3.8,8.6c-1.1,2.9-2.2,5.7-3.1,8.6s-1.8,5.9-2.6,9
		c16.9-21.5,29.4-32.3,37.5-32.3c2.3,0,4.7,0.7,7.4,2.2c2.6,1.5,5,3.5,7,6.1c-2.7,3-5.5,6.6-8.4,10.8c-2.9,4.2-5.6,8.4-8,12.7
		c-2.4,4.3-4.4,8.2-5.9,11.8c-1.5,3.6-2.3,6.3-2.3,8.1c0,0.9,0.1,1.5,0.4,1.8s0.8,0.5,1.7,0.5c1.3,0,2.4-0.2,3.2-0.5
		c0.8-0.3,1.3-0.5,1.4-0.5c0.4,0.7,0.7,1.2,0.8,1.4c0.1,0.3,0.1,0.5,0.1,0.7c0,0.4-0.5,0.9-1.6,1.5c-1.1,0.7-2.3,1.3-3.8,2
		s-2.9,1.3-4.3,1.8s-2.5,0.8-3.2,0.8c-0.9,0-1.8-0.2-2.6-0.7c-0.9-0.5-1.6-1.1-2.3-1.9s-1.2-1.7-1.6-2.6c-0.4-1-0.6-2-0.6-3
		c0-1.3,0.4-3.3,1.1-5.9s1.8-5.6,3.1-9.1c1.3-3.5,2.9-7.3,4.7-11.4c1.8-4.1,3.8-8.3,5.9-12.6c0-0.3-0.2-0.5-0.5-0.5s-0.9,0.4-2,1.1
		s-2.1,1.4-3.1,2.1c-3.2,2.4-6.3,5.3-9.5,8.8s-6.3,7.3-9.3,11.4s-5.9,8.5-8.6,13.1s-5,9.2-6.9,13.9c-0.3,0.6-0.7,1.2-1.2,1.7
		s-1,0.8-1.3,0.8s-0.6-0.3-1.1-0.9s-0.9-1.4-1.3-2.3s-0.8-1.9-1.1-2.8C421.2,304.7,421,303.9,421,303.2z"/>
	<path class="st2" d="M536.3,250.9c-0.4,5.4-1.3,10.1-2.9,14c-1.6,3.9-3.8,7.3-6.8,10.3c-2.9,2.9-6.5,5.6-10.7,8s-9.1,4.7-14.7,6.8
		c0,0.5,0,1.1-0.1,1.6c0,0.6-0.1,1.2-0.1,1.8c0,1.1,0.1,2.3,0.3,3.6c0.2,1.2,0.5,2.4,0.9,3.4c0.4,1.1,1.1,1.9,1.8,2.6s1.8,1,3,1
		c2.4,0,4.7-0.5,7-1.6c2.3-1.1,4.5-2.3,6.5-3.9c2.1-1.5,4-3.2,5.8-5s3.4-3.4,4.8-4.9c0.9,0.8,1.6,1.5,2.2,2.2
		c-3.9,5.3-8.3,9.6-13,13.1s-9.1,5.7-13.4,6.6c-6.1-0.7-10.8-2.9-14.2-6.6c-3.4-3.7-5.1-8.2-5.1-13.5c0-3.6,0.5-7.3,1.5-11
		s2.4-7.3,4.2-10.8c1.8-3.5,3.9-6.7,6.3-9.8c2.4-3.1,5-5.7,7.8-8s5.6-4.1,8.6-5.4c2.9-1.3,5.9-2,8.8-2
		C529,244,532.8,246.5,536.3,250.9z M527.3,255.3c-2.4,0.4-4.8,1.3-7.4,2.9c-2.5,1.6-4.9,3.7-7.2,6.3c-2.3,2.6-4.3,5.7-6.1,9.2
		c-1.8,3.5-3.3,7.3-4.3,11.3c7-3.5,12.9-7.8,17.5-13C524.4,266.9,526.9,261.3,527.3,255.3z M525.1,209.5c1.8,3.1,3.8,5.9,5.9,8.6
		c2.1,2.6,4.2,5,6.3,7.1c2.2,2.1,4.3,3.9,6.4,5.4c2.1,1.5,4.1,2.6,6.1,3.3c-2,1.7-4.4,2.5-7.2,2.5c-1.4,0-2.9-0.2-4.3-0.6
		c-1.5-0.4-3.2-1.1-5.2-2s-4.2-2.1-6.7-3.6s-5.4-3.4-8.8-5.7c0-1.2,0.2-2.6,0.7-4.1c0.4-1.5,1-3,1.8-4.4c0.7-1.4,1.6-2.8,2.4-3.9
		C523.3,210.8,524.2,210,525.1,209.5z"/>
	<path class="st2" d="M539.2,302.8c0.4-2.5,1.2-5.9,2.3-10.1s2.4-8.6,3.9-13.3c1.5-4.7,3.1-9.4,4.7-14.2c1.7-4.7,3.3-9,4.9-12.8
		c1.1-2.7,2.1-4.8,3-6.4c0.9-1.5,1.8-2.8,2.9-3.9c1.2,0.2,2.5,0.5,3.8,0.9s2.6,1,3.8,1.6s2.3,1.3,3.3,1.9c1,0.7,1.7,1.3,2.2,1.9
		c-2.4,2.8-4.5,6-6.3,9.6c-1.8,3.6-3.6,8.2-5.5,13.8c4.7-4.2,8.9-8.2,12.6-12.1c3.6-3.9,7-8.2,10.2-12.9c0.5-0.4,1.4-0.7,2.8-0.7
		c1.2,0,2.4,0.2,3.6,0.6c1.1,0.4,1.9,0.9,2.4,1.6c-1.6,4.2-2.4,8.4-2.4,12.5c0,3.9,0.6,6.8,1.7,8.7c-0.1,0.5-0.7,1.5-1.8,3
		s-2.3,2.9-3.6,4.2c-2.4-1.2-4.5-2.9-6.3-5.1c-1.8-2.1-3.2-4.5-4.1-7c-4.1,2.9-7.6,5.7-10.5,8.5s-5.4,5.8-7.4,9.2
		c-2.1,3.4-3.8,7.3-5.3,11.7c-1.4,4.4-2.8,9.6-4.1,15.7c-0.8-0.1-1.7-0.4-2.8-0.9s-2.2-1.1-3.3-1.8c-1.1-0.7-2.1-1.4-3-2.2
		C540.1,304.3,539.5,303.5,539.2,302.8z"/>
	<path class="st2" d="M642.6,250.9c-0.4,5.4-1.3,10.1-2.9,14c-1.6,3.9-3.8,7.3-6.8,10.3c-2.9,2.9-6.5,5.6-10.7,8s-9.1,4.7-14.7,6.8
		c0,0.5,0,1.1-0.1,1.6c0,0.6-0.1,1.2-0.1,1.8c0,1.1,0.1,2.3,0.3,3.6c0.2,1.2,0.5,2.4,0.9,3.4c0.4,1.1,1.1,1.9,1.8,2.6s1.8,1,3,1
		c2.4,0,4.7-0.5,7-1.6s4.5-2.3,6.5-3.9c2.1-1.5,4-3.2,5.8-5s3.4-3.4,4.8-4.9c0.9,0.8,1.6,1.5,2.2,2.2c-3.9,5.3-8.3,9.6-13,13.1
		s-9.1,5.7-13.4,6.6c-6.1-0.7-10.8-2.9-14.2-6.6s-5.1-8.2-5.1-13.5c0-3.6,0.5-7.3,1.5-11s2.4-7.3,4.2-10.8s3.9-6.7,6.3-9.8
		c2.4-3.1,5-5.7,7.8-8s5.6-4.1,8.6-5.4c2.9-1.3,5.9-2,8.8-2C635.3,244,639.1,246.5,642.6,250.9z M633.5,255.3
		c-2.4,0.4-4.8,1.3-7.4,2.9c-2.5,1.6-4.9,3.7-7.2,6.3s-4.3,5.7-6.1,9.2s-3.3,7.3-4.3,11.3c7-3.5,12.9-7.8,17.5-13
		C630.6,266.9,633.1,261.3,633.5,255.3z"/>
</g>
<circle class="st1" cx="551" cy="30.8" r="14.8"/>
</svg>
